<svg xmlns="http://www.w3.org/2000/svg" viewBox="0 0 201 201"><defs><style>.cls-1{fill:#1b1c1d;}.cls-2{fill:#9c171b;}.cls-3{fill:#d10003;}.cls-4{fill:#ff0112;}.cls-5{fill:#ff5e15;}.cls-6{fill:#ff9802;}.cls-7{fill:#fdcd00;}.cls-8{fill:#fffd00;}.cls-9{fill:#cbff00;}.cls-10{fill:#05fb05;}.cls-11{fill:#0c0;}.cls-12{fill:#019900;}.cls-13{fill:#036500;}.cls-14{fill:#009a9e;}.cls-15{fill:#0796fe;}.cls-16{fill:#0268f3;}.cls-17{fill:#0033fb;}.cls-18{fill:#02009f;}.cls-19{fill:#9800d5;}.cls-20{fill:#ce01ff;}.cls-21{fill:#f868ff;}.cls-22{fill:#ff32ff;}.cls-23{fill:none;stroke:#1b1c1d;stroke-miterlimit:10;}</style></defs><title>Rainbow</title><g id="Layer_2" data-name="Layer 2"><g id="Layer_1-2" data-name="Layer 1"><rect class="cls-1" x="181.45" y="114.79" width="9.53" height="9.52"/><rect class="cls-1" x="181.45" y="124.31" width="9.53" height="9.52"/><rect class="cls-1" x="181.45" y="133.83" width="9.53" height="9.53"/><rect class="cls-1" x="171.93" y="133.83" width="9.52" height="9.53"/><rect class="cls-1" x="162.4" y="114.79" width="9.53" height="9.52"/><rect class="cls-1" x="162.4" y="124.31" width="9.53" height="9.52"/><rect class="cls-1" x="162.4" y="95.74" width="9.53" height="9.52"/><rect class="cls-1" x="162.4" y="105.26" width="9.53" height="9.53"/><rect class="cls-1" x="162.4" y="133.83" width="9.53" height="9.53"/><rect class="cls-1" x="162.4" y="143.36" width="9.53" height="9.52"/><rect class="cls-1" x="152.88" y="143.36" width="9.52" height="9.52"/><rect class="cls-1" x="152.88" y="124.31" width="9.52" height="9.52"/><rect class="cls-1" x="152.88" y="114.79" width="9.52" height="9.52"/><rect class="cls-1" x="152.88" y="133.83" width="9.52" height="9.53"/><rect class="cls-1" x="143.36" y="95.74" width="9.52" height="9.52"/><rect class="cls-1" x="143.36" y="105.26" width="9.52" height="9.53"/><rect class="cls-1" x="143.36" y="133.83" width="9.52" height="9.53"/><rect class="cls-1" x="143.36" y="143.36" width="9.52" height="9.52"/><rect class="cls-1" x="143.36" y="114.79" width="9.52" height="9.52"/><rect class="cls-1" x="143.36" y="124.31" width="9.52" height="9.52"/><rect class="cls-1" x="143.36" y="86.21" width="9.52" height="9.53"/><rect class="cls-1" x="124.31" y="143.36" width="9.52" height="9.52"/><rect class="cls-1" x="124.31" y="133.83" width="9.52" height="9.53"/><rect class="cls-1" x="124.31" y="114.79" width="9.52" height="9.52"/><rect class="cls-1" x="124.31" y="124.31" width="9.52" height="9.52"/><rect class="cls-1" x="124.31" y="105.26" width="9.52" height="9.53"/><rect class="cls-1" x="124.31" y="95.74" width="9.52" height="9.52"/><rect class="cls-1" x="114.79" y="143.36" width="9.52" height="9.52"/><rect class="cls-1" x="114.79" y="133.83" width="9.52" height="9.53"/><rect class="cls-1" x="105.26" y="124.31" width="9.53" height="9.52"/><rect class="cls-1" x="105.26" y="133.83" width="9.53" height="9.53"/><rect class="cls-1" x="105.26" y="105.26" width="9.53" height="9.53"/><rect class="cls-1" x="105.26" y="114.79" width="9.53" height="9.52"/><rect class="cls-1" x="95.74" y="133.83" width="9.52" height="9.53"/><rect class="cls-1" x="95.74" y="124.31" width="9.52" height="9.52"/><rect class="cls-1" x="86.21" y="114.79" width="9.53" height="9.52"/><rect class="cls-1" x="86.21" y="86.21" width="9.53" height="9.53"/><rect class="cls-1" x="86.21" y="76.69" width="9.53" height="9.52"/><rect class="cls-1" x="86.21" y="105.26" width="9.53" height="9.53"/><rect class="cls-1" x="86.21" y="95.74" width="9.53" height="9.52"/><rect class="cls-1" x="86.21" y="124.31" width="9.53" height="9.52"/><rect class="cls-1" x="86.21" y="133.83" width="9.53" height="9.53"/><rect class="cls-1" x="76.69" y="124.31" width="9.52" height="9.52"/><rect class="cls-1" x="76.69" y="133.83" width="9.52" height="9.53"/><rect class="cls-1" x="190.98" y="181.45" width="9.52" height="9.53"/><rect class="cls-1" x="190.98" y="152.88" width="9.52" height="9.52"/><rect class="cls-1" x="190.98" y="162.4" width="9.52" height="9.53"/><rect class="cls-1" x="190.98" y="190.98" width="9.52" height="9.52"/><rect class="cls-1" x="190.98" y="171.93" width="9.52" height="9.52"/><rect class="cls-1" x="171.93" y="181.45" width="9.52" height="9.53"/><rect class="cls-1" x="171.93" y="190.98" width="9.52" height="9.52"/><rect class="cls-1" x="171.93" y="171.93" width="9.52" height="9.52"/><rect class="cls-1" x="171.93" y="162.4" width="9.52" height="9.53"/><rect class="cls-1" x="181.45" y="152.88" width="9.53" height="9.52"/><rect class="cls-1" x="181.45" y="162.4" width="9.53" height="9.53"/><rect class="cls-1" x="181.45" y="181.45" width="9.53" height="9.53"/><rect class="cls-1" x="181.45" y="171.93" width="9.53" height="9.52"/><rect class="cls-1" x="181.45" y="190.98" width="9.53" height="9.52"/><rect class="cls-1" x="181.45" y="143.36" width="9.53" height="9.52"/><rect class="cls-1" x="171.93" y="152.88" width="9.52" height="9.52"/><rect class="cls-1" x="171.93" y="143.36" width="9.52" height="9.52"/><rect class="cls-1" x="143.36" y="190.98" width="9.52" height="9.52"/><rect class="cls-1" x="124.31" y="190.98" width="9.52" height="9.52"/><rect class="cls-1" x="124.31" y="171.93" width="9.52" height="9.52"/><rect class="cls-1" x="124.31" y="181.45" width="9.52" height="9.53"/><rect class="cls-1" x="124.31" y="152.88" width="9.52" height="9.52"/><rect class="cls-1" x="162.4" y="152.88" width="9.53" height="9.52"/><rect class="cls-1" x="162.4" y="162.4" width="9.53" height="9.53"/><rect class="cls-1" x="162.4" y="171.93" width="9.53" height="9.52"/><rect class="cls-1" x="162.4" y="190.98" width="9.53" height="9.52"/><rect class="cls-1" x="162.4" y="181.45" width="9.53" height="9.53"/><rect class="cls-1" x="152.88" y="152.88" width="9.52" height="9.52"/><rect class="cls-1" x="152.88" y="162.4" width="9.52" height="9.53"/><rect class="cls-1" x="152.88" y="171.93" width="9.52" height="9.52"/><rect class="cls-1" x="152.88" y="190.98" width="9.52" height="9.52"/><rect class="cls-1" x="152.88" y="181.45" width="9.52" height="9.53"/><rect class="cls-1" x="133.83" y="152.88" width="9.53" height="9.52"/><rect class="cls-1" x="133.83" y="162.4" width="9.53" height="9.53"/><rect class="cls-1" x="133.83" y="171.93" width="9.53" height="9.52"/><rect class="cls-1" x="143.36" y="181.45" width="9.52" height="9.53"/><rect class="cls-1" x="143.36" y="152.88" width="9.52" height="9.52"/><rect class="cls-1" x="143.36" y="162.4" width="9.52" height="9.53"/><rect class="cls-1" x="143.36" y="171.93" width="9.52" height="9.52"/><rect class="cls-1" x="133.83" y="181.45" width="9.53" height="9.53"/><rect class="cls-1" x="133.83" y="190.98" width="9.53" height="9.52"/><rect class="cls-1" x="124.31" y="162.4" width="9.52" height="9.53"/><rect class="cls-1" x="105.26" y="190.98" width="9.53" height="9.52"/><rect class="cls-1" x="95.74" y="143.36" width="9.52" height="9.52"/><rect class="cls-1" x="95.74" y="152.88" width="9.52" height="9.52"/><rect class="cls-1" x="95.74" y="171.93" width="9.52" height="9.52"/><rect class="cls-1" x="95.74" y="162.4" width="9.52" height="9.53"/><rect class="cls-1" x="95.74" y="181.45" width="9.52" height="9.53"/><rect class="cls-1" x="95.74" y="190.98" width="9.52" height="9.52"/><rect class="cls-1" x="105.26" y="143.36" width="9.53" height="9.52"/><rect class="cls-1" x="67.17" y="181.45" width="9.52" height="9.53"/><rect class="cls-1" x="67.17" y="190.98" width="9.52" height="9.52"/><rect class="cls-1" x="105.26" y="181.45" width="9.53" height="9.53"/><rect class="cls-1" x="105.26" y="162.4" width="9.53" height="9.53"/><rect class="cls-1" x="105.26" y="152.88" width="9.53" height="9.52"/><rect class="cls-1" x="105.26" y="171.93" width="9.53" height="9.52"/><rect class="cls-1" x="67.17" y="152.88" width="9.52" height="9.52"/><rect class="cls-1" x="67.17" y="171.93" width="9.52" height="9.52"/><rect class="cls-1" x="67.17" y="162.4" width="9.52" height="9.53"/><rect class="cls-1" x="67.17" y="143.36" width="9.52" height="9.52"/><rect class="cls-1" x="76.69" y="152.88" width="9.52" height="9.52"/><rect class="cls-1" x="76.69" y="143.36" width="9.52" height="9.52"/><rect class="cls-1" x="76.69" y="190.98" width="9.52" height="9.52"/><rect class="cls-1" x="76.69" y="181.45" width="9.52" height="9.53"/><rect class="cls-1" x="76.69" y="162.4" width="9.52" height="9.53"/><rect class="cls-1" x="76.69" y="171.93" width="9.52" height="9.52"/><rect class="cls-1" x="86.21" y="162.4" width="9.53" height="9.53"/><rect class="cls-1" x="86.21" y="181.45" width="9.53" height="9.53"/><rect class="cls-1" x="86.21" y="190.98" width="9.53" height="9.52"/><rect class="cls-1" x="86.21" y="171.93" width="9.53" height="9.52"/><rect class="cls-1" x="86.21" y="143.36" width="9.53" height="9.52"/><rect class="cls-1" x="86.21" y="152.88" width="9.53" height="9.52"/><rect class="cls-1" x="114.79" y="181.45" width="9.52" height="9.53"/><rect class="cls-1" x="114.79" y="190.98" width="9.52" height="9.52"/><rect class="cls-1" x="114.79" y="152.88" width="9.52" height="9.52"/><rect class="cls-1" x="114.79" y="171.93" width="9.52" height="9.52"/><rect class="cls-1" x="114.79" y="162.4" width="9.52" height="9.53"/><rect class="cls-1" x="48.12" y="171.93" width="9.52" height="9.52"/><rect class="cls-1" x="48.12" y="190.98" width="9.52" height="9.52"/><rect class="cls-1" x="48.12" y="181.45" width="9.52" height="9.53"/><rect class="cls-1" x="57.64" y="190.98" width="9.53" height="9.52"/><rect class="cls-1" x="57.64" y="181.45" width="9.53" height="9.53"/><rect class="cls-1" x="48.12" y="152.88" width="9.52" height="9.52"/><rect class="cls-1" x="48.12" y="143.36" width="9.52" height="9.52"/><rect class="cls-1" x="48.12" y="162.4" width="9.52" height="9.53"/><rect class="cls-1" x="48.12" y="133.83" width="9.52" height="9.53"/><rect class="cls-1" x="48.12" y="124.31" width="9.52" height="9.52"/><rect class="cls-1" x="48.12" y="105.26" width="9.52" height="9.53"/><rect class="cls-1" x="48.12" y="114.79" width="9.52" height="9.52"/><rect class="cls-1" x="38.6" y="76.69" width="9.52" height="9.52"/><rect class="cls-1" x="38.6" y="86.21" width="9.52" height="9.53"/><rect class="cls-1" x="38.6" y="95.74" width="9.52" height="9.52"/><rect class="cls-1" x="38.6" y="105.26" width="9.52" height="9.53"/><rect class="cls-1" x="38.6" y="124.31" width="9.52" height="9.52"/><rect class="cls-1" x="38.6" y="162.4" width="9.52" height="9.53"/><rect class="cls-1" x="38.6" y="114.79" width="9.52" height="9.52"/><rect class="cls-1" x="38.6" y="181.45" width="9.52" height="9.53"/><rect class="cls-1" x="38.6" y="171.93" width="9.52" height="9.52"/><rect class="cls-1" x="38.6" y="190.98" width="9.52" height="9.52"/><rect class="cls-1" x="38.6" y="133.83" width="9.52" height="9.53"/><rect class="cls-1" x="38.6" y="143.36" width="9.52" height="9.52"/><rect class="cls-1" x="38.6" y="152.88" width="9.52" height="9.52"/><rect class="cls-1" x="29.07" y="181.45" width="9.53" height="9.53"/><rect class="cls-1" x="29.07" y="171.93" width="9.53" height="9.52"/><rect class="cls-1" x="29.07" y="162.4" width="9.53" height="9.53"/><rect class="cls-1" x="29.07" y="152.88" width="9.53" height="9.52"/><rect class="cls-1" x="29.07" y="143.36" width="9.53" height="9.52"/><rect class="cls-1" x="19.55" y="143.36" width="9.52" height="9.52"/><rect class="cls-1" x="19.55" y="162.4" width="9.52" height="9.53"/><rect class="cls-1" x="19.55" y="152.88" width="9.52" height="9.52"/><rect class="cls-1" x="19.55" y="124.31" width="9.52" height="9.52"/><rect class="cls-1" x="19.55" y="133.83" width="9.52" height="9.53"/><rect class="cls-1" x="19.55" y="181.45" width="9.52" height="9.53"/><rect class="cls-1" x="19.55" y="171.93" width="9.52" height="9.52"/><rect class="cls-1" x="10.02" y="152.88" width="9.53" height="9.52"/><rect class="cls-1" x="10.02" y="162.4" width="9.53" height="9.53"/><rect class="cls-1" x="10.02" y="171.93" width="9.53" height="9.52"/><rect class="cls-1" x="10.02" y="133.83" width="9.53" height="9.53"/><rect class="cls-1" x="10.02" y="143.36" width="9.53" height="9.52"/><rect class="cls-1" x="29.07" y="190.98" width="9.53" height="9.52"/><rect class="cls-1" x="10.02" y="190.98" width="9.53" height="9.52"/><rect class="cls-1" x="10.02" y="181.45" width="9.53" height="9.53"/><rect class="cls-1" x="19.55" y="190.98" width="9.52" height="9.52"/><rect class="cls-1" x="0.5" y="171.93" width="9.52" height="9.52"/><rect class="cls-1" x="0.5" y="190.98" width="9.52" height="9.52"/><rect class="cls-1" x="0.5" y="162.4" width="9.52" height="9.53"/><rect class="cls-1" x="0.5" y="181.45" width="9.52" height="9.53"/><rect class="cls-1" x="190.98" y="143.36" width="9.52" height="9.52"/><rect class="cls-2" x="190.98" y="133.83" width="9.52" height="9.53"/><rect class="cls-2" x="190.98" y="124.31" width="9.52" height="9.52"/><rect class="cls-2" x="190.98" y="114.79" width="9.52" height="9.52"/><rect class="cls-2" x="190.98" y="105.26" width="9.52" height="9.53"/><rect class="cls-2" x="190.98" y="95.74" width="9.52" height="9.52"/><rect class="cls-2" x="190.98" y="86.21" width="9.52" height="9.53"/><rect class="cls-2" x="190.98" y="76.69" width="9.52" height="9.52"/><rect class="cls-2" x="190.98" y="67.17" width="9.52" height="9.52"/><rect class="cls-2" x="190.98" y="57.64" width="9.52" height="9.53"/><rect class="cls-2" x="190.98" y="48.12" width="9.52" height="9.52"/><rect class="cls-2" x="190.98" y="38.6" width="9.52" height="9.52"/><rect class="cls-2" x="190.98" y="29.07" width="9.52" height="9.53"/><rect class="cls-2" x="190.98" y="19.55" width="9.52" height="9.52"/><rect class="cls-2" x="190.98" y="10.02" width="9.52" height="9.53"/><rect class="cls-2" x="190.98" y="0.5" width="9.52" height="9.52"/><rect class="cls-3" x="181.45" y="105.26" width="9.53" height="9.53"/><rect class="cls-3" x="181.45" y="95.74" width="9.53" height="9.52"/><rect class="cls-3" x="181.45" y="86.21" width="9.53" height="9.53"/><rect class="cls-3" x="181.45" y="76.69" width="9.53" height="9.52"/><rect class="cls-3" x="181.45" y="67.17" width="9.53" height="9.52"/><rect class="cls-3" x="181.45" y="57.64" width="9.53" height="9.53"/><rect class="cls-3" x="181.45" y="48.12" width="9.53" height="9.52"/><rect class="cls-3" x="181.45" y="38.6" width="9.53" height="9.52"/><rect class="cls-3" x="181.45" y="29.07" width="9.53" height="9.53"/><rect class="cls-3" x="181.45" y="19.55" width="9.53" height="9.52"/><rect class="cls-3" x="181.45" y="10.02" width="9.53" height="9.53"/><rect class="cls-3" x="181.45" y="0.5" width="9.53" height="9.52"/><rect class="cls-4" x="171.93" y="124.31" width="9.52" height="9.52"/><rect class="cls-4" x="171.93" y="114.79" width="9.52" height="9.52"/><rect class="cls-4" x="171.93" y="105.26" width="9.52" height="9.53"/><rect class="cls-4" x="171.93" y="95.74" width="9.52" height="9.52"/><rect class="cls-4" x="171.93" y="86.21" width="9.52" height="9.53"/><rect class="cls-4" x="171.93" y="76.69" width="9.52" height="9.52"/><rect class="cls-4" x="171.93" y="67.17" width="9.52" height="9.52"/><rect class="cls-4" x="171.93" y="57.64" width="9.52" height="9.53"/><rect class="cls-4" x="171.93" y="48.12" width="9.52" height="9.52"/><rect class="cls-4" x="171.93" y="38.6" width="9.52" height="9.52"/><rect class="cls-4" x="171.93" y="29.07" width="9.52" height="9.53"/><rect class="cls-4" x="171.93" y="19.55" width="9.52" height="9.52"/><rect class="cls-4" x="171.93" y="10.02" width="9.52" height="9.53"/><rect class="cls-4" x="171.93" y="0.5" width="9.52" height="9.52"/><rect class="cls-5" x="162.4" y="86.21" width="9.53" height="9.53"/><rect class="cls-5" x="162.4" y="76.69" width="9.53" height="9.52"/><rect class="cls-5" x="162.4" y="67.17" width="9.53" height="9.52"/><rect class="cls-5" x="162.4" y="57.64" width="9.53" height="9.53"/><rect class="cls-5" x="162.4" y="48.12" width="9.53" height="9.52"/><rect class="cls-5" x="162.4" y="38.6" width="9.53" height="9.52"/><rect class="cls-5" x="162.4" y="29.07" width="9.53" height="9.53"/><rect class="cls-5" x="162.4" y="19.55" width="9.53" height="9.52"/><rect class="cls-5" x="162.4" y="10.02" width="9.53" height="9.53"/><rect class="cls-5" x="162.4" y="0.5" width="9.53" height="9.52"/><rect class="cls-6" x="152.88" y="105.26" width="9.52" height="9.53"/><rect class="cls-6" x="152.88" y="95.74" width="9.52" height="9.52"/><rect class="cls-6" x="152.88" y="86.21" width="9.52" height="9.53"/><rect class="cls-6" x="152.88" y="76.69" width="9.52" height="9.52"/><rect class="cls-6" x="152.88" y="67.17" width="9.52" height="9.52"/><rect class="cls-6" x="152.88" y="57.64" width="9.52" height="9.53"/><rect class="cls-6" x="152.88" y="48.12" width="9.52" height="9.52"/><rect class="cls-6" x="152.88" y="38.6" width="9.52" height="9.52"/><rect class="cls-6" x="152.88" y="29.07" width="9.52" height="9.53"/><rect class="cls-6" x="152.88" y="19.55" width="9.52" height="9.52"/><rect class="cls-6" x="152.88" y="10.02" width="9.52" height="9.53"/><rect class="cls-6" x="152.88" y="0.5" width="9.52" height="9.52"/><rect class="cls-7" x="143.36" y="76.69" width="9.52" height="9.52"/><rect class="cls-7" x="143.36" y="67.17" width="9.52" height="9.52"/><rect class="cls-7" x="143.36" y="57.64" width="9.52" height="9.53"/><rect class="cls-7" x="143.36" y="48.12" width="9.52" height="9.52"/><rect class="cls-7" x="143.36" y="38.6" width="9.52" height="9.52"/><rect class="cls-7" x="143.36" y="29.07" width="9.52" height="9.53"/><rect class="cls-7" x="143.36" y="19.55" width="9.52" height="9.52"/><rect class="cls-7" x="143.36" y="10.02" width="9.52" height="9.53"/><rect class="cls-7" x="143.36" y="0.5" width="9.52" height="9.52"/><rect class="cls-1" x="133.83" y="143.36" width="9.53" height="9.52"/><rect class="cls-8" x="133.83" y="133.83" width="9.53" height="9.53"/><rect class="cls-8" x="133.83" y="124.31" width="9.53" height="9.52"/><rect class="cls-8" x="133.83" y="114.79" width="9.53" height="9.52"/><rect class="cls-8" x="133.83" y="105.26" width="9.53" height="9.53"/><rect class="cls-8" x="133.83" y="95.74" width="9.53" height="9.52"/><rect class="cls-8" x="133.83" y="86.21" width="9.53" height="9.53"/><rect class="cls-8" x="133.83" y="76.69" width="9.53" height="9.52"/><rect class="cls-8" x="133.83" y="67.17" width="9.53" height="9.52"/><rect class="cls-8" x="133.83" y="57.64" width="9.53" height="9.53"/><rect class="cls-8" x="133.83" y="48.12" width="9.53" height="9.52"/><rect class="cls-8" x="133.83" y="38.6" width="9.53" height="9.52"/><rect class="cls-8" x="133.83" y="29.07" width="9.53" height="9.53"/><rect class="cls-8" x="133.83" y="19.55" width="9.53" height="9.52"/><rect class="cls-8" x="133.83" y="10.02" width="9.53" height="9.53"/><rect class="cls-8" x="133.83" y="0.5" width="9.53" height="9.52"/><rect class="cls-9" x="124.31" y="86.21" width="9.52" height="9.53"/><rect class="cls-9" x="124.31" y="76.69" width="9.52" height="9.52"/><rect class="cls-9" x="124.31" y="67.17" width="9.52" height="9.52"/><rect class="cls-9" x="124.31" y="57.64" width="9.52" height="9.53"/><rect class="cls-9" x="124.31" y="48.12" width="9.52" height="9.52"/><rect class="cls-9" x="124.31" y="38.6" width="9.52" height="9.52"/><rect class="cls-9" x="124.31" y="29.07" width="9.52" height="9.53"/><rect class="cls-9" x="124.31" y="19.55" width="9.52" height="9.52"/><rect class="cls-9" x="124.31" y="10.02" width="9.52" height="9.53"/><rect class="cls-9" x="124.31" y="0.5" width="9.52" height="9.52"/><rect class="cls-10" x="114.79" y="124.31" width="9.52" height="9.52"/><rect class="cls-10" x="114.79" y="114.79" width="9.52" height="9.52"/><rect class="cls-10" x="114.79" y="105.26" width="9.52" height="9.53"/><rect class="cls-10" x="114.79" y="95.74" width="9.52" height="9.52"/><rect class="cls-10" x="114.79" y="86.21" width="9.52" height="9.53"/><rect class="cls-10" x="114.79" y="76.69" width="9.52" height="9.52"/><rect class="cls-10" x="114.79" y="67.17" width="9.52" height="9.52"/><rect class="cls-10" x="114.79" y="57.64" width="9.52" height="9.53"/><rect class="cls-10" x="114.79" y="48.12" width="9.52" height="9.52"/><rect class="cls-10" x="114.79" y="38.6" width="9.52" height="9.52"/><rect class="cls-10" x="114.79" y="29.07" width="9.52" height="9.53"/><rect class="cls-10" x="114.79" y="19.55" width="9.52" height="9.52"/><rect class="cls-10" x="114.79" y="10.02" width="9.52" height="9.53"/><rect class="cls-10" x="114.79" y="0.5" width="9.52" height="9.52"/><rect class="cls-11" x="105.26" y="95.74" width="9.53" height="9.52"/><rect class="cls-11" x="105.26" y="86.21" width="9.53" height="9.53"/><rect class="cls-11" x="105.26" y="76.69" width="9.53" height="9.52"/><rect class="cls-11" x="105.26" y="67.17" width="9.53" height="9.52"/><rect class="cls-11" x="105.26" y="57.64" width="9.53" height="9.53"/><rect class="cls-11" x="105.26" y="48.12" width="9.53" height="9.52"/><rect class="cls-11" x="105.26" y="38.6" width="9.53" height="9.52"/><rect class="cls-11" x="105.26" y="29.07" width="9.53" height="9.53"/><rect class="cls-11" x="105.26" y="19.55" width="9.53" height="9.52"/><rect class="cls-11" x="105.26" y="10.02" width="9.53" height="9.53"/><rect class="cls-11" x="105.26" y="0.5" width="9.53" height="9.52"/><rect class="cls-12" x="95.74" y="114.79" width="9.52" height="9.52"/><rect class="cls-12" x="95.74" y="105.26" width="9.52" height="9.53"/><rect class="cls-12" x="95.74" y="95.74" width="9.52" height="9.52"/><rect class="cls-12" x="95.74" y="86.21" width="9.52" height="9.53"/><rect class="cls-12" x="95.74" y="76.69" width="9.52" height="9.52"/><rect class="cls-12" x="95.74" y="67.17" width="9.52" height="9.52"/><rect class="cls-12" x="95.74" y="57.64" width="9.52" height="9.53"/><rect class="cls-12" x="95.74" y="48.12" width="9.52" height="9.52"/><rect class="cls-12" x="95.74" y="38.6" width="9.52" height="9.52"/><rect class="cls-12" x="95.74" y="29.07" width="9.52" height="9.53"/><rect class="cls-12" x="95.74" y="19.55" width="9.52" height="9.52"/><rect class="cls-12" x="95.74" y="10.02" width="9.52" height="9.53"/><rect class="cls-12" x="95.74" y="0.5" width="9.52" height="9.52"/><rect class="cls-13" x="86.21" y="67.17" width="9.53" height="9.52"/><rect class="cls-13" x="86.21" y="57.64" width="9.53" height="9.53"/><rect class="cls-13" x="86.21" y="48.12" width="9.53" height="9.52"/><rect class="cls-13" x="86.21" y="38.6" width="9.53" height="9.52"/><rect class="cls-13" x="86.21" y="29.07" width="9.53" height="9.53"/><rect class="cls-13" x="86.21" y="19.55" width="9.53" height="9.52"/><rect class="cls-13" x="86.21" y="10.02" width="9.53" height="9.53"/><rect class="cls-13" x="86.21" y="0.5" width="9.53" height="9.52"/><rect class="cls-14" x="76.69" y="114.79" width="9.52" height="9.52"/><rect class="cls-14" x="76.69" y="105.26" width="9.52" height="9.53"/><rect class="cls-14" x="76.69" y="95.74" width="9.52" height="9.52"/><rect class="cls-14" x="76.69" y="86.21" width="9.52" height="9.53"/><rect class="cls-14" x="76.69" y="76.69" width="9.52" height="9.52"/><rect class="cls-14" x="76.69" y="67.17" width="9.52" height="9.52"/><rect class="cls-14" x="76.69" y="57.64" width="9.52" height="9.53"/><rect class="cls-14" x="76.69" y="48.12" width="9.52" height="9.52"/><rect class="cls-14" x="76.69" y="38.6" width="9.52" height="9.52"/><rect class="cls-14" x="76.69" y="29.07" width="9.52" height="9.53"/><rect class="cls-14" x="76.69" y="19.55" width="9.52" height="9.52"/><rect class="cls-14" x="76.69" y="10.02" width="9.52" height="9.53"/><rect class="cls-14" x="76.69" y="0.5" width="9.52" height="9.52"/><rect class="cls-15" x="67.17" y="133.83" width="9.52" height="9.53"/><rect class="cls-15" x="67.17" y="124.31" width="9.52" height="9.52"/><rect class="cls-15" x="67.17" y="114.79" width="9.52" height="9.52"/><rect class="cls-15" x="67.17" y="105.26" width="9.52" height="9.53"/><rect class="cls-15" x="67.17" y="95.74" width="9.52" height="9.52"/><rect class="cls-15" x="67.17" y="86.21" width="9.52" height="9.53"/><rect class="cls-15" x="67.17" y="76.69" width="9.52" height="9.52"/><rect class="cls-15" x="67.17" y="67.17" width="9.52" height="9.52"/><rect class="cls-15" x="67.17" y="57.64" width="9.52" height="9.53"/><rect class="cls-15" x="67.17" y="48.12" width="9.52" height="9.52"/><rect class="cls-15" x="67.17" y="38.6" width="9.52" height="9.52"/><rect class="cls-15" x="67.17" y="29.07" width="9.52" height="9.53"/><rect class="cls-15" x="67.17" y="19.55" width="9.52" height="9.52"/><rect class="cls-15" x="67.17" y="10.02" width="9.52" height="9.53"/><rect class="cls-15" x="67.17" y="0.5" width="9.52" height="9.52"/><rect class="cls-16" x="57.64" y="171.93" width="9.53" height="9.52"/><rect class="cls-16" x="57.64" y="162.4" width="9.53" height="9.53"/><rect class="cls-16" x="57.64" y="152.88" width="9.53" height="9.52"/><rect class="cls-16" x="57.64" y="143.36" width="9.53" height="9.52"/><rect class="cls-16" x="57.64" y="133.83" width="9.53" height="9.53"/><rect class="cls-16" x="57.64" y="124.31" width="9.53" height="9.52"/><rect class="cls-16" x="57.64" y="114.79" width="9.53" height="9.52"/><rect class="cls-16" x="57.64" y="105.26" width="9.53" height="9.53"/><rect class="cls-16" x="57.64" y="95.74" width="9.53" height="9.52"/><rect class="cls-16" x="57.64" y="86.21" width="9.53" height="9.53"/><rect class="cls-16" x="57.64" y="76.69" width="9.53" height="9.52"/><rect class="cls-16" x="57.64" y="67.17" width="9.53" height="9.52"/><rect class="cls-16" x="57.64" y="57.64" width="9.53" height="9.53"/><rect class="cls-16" x="57.64" y="48.12" width="9.53" height="9.52"/><rect class="cls-16" x="57.64" y="38.6" width="9.53" height="9.52"/><rect class="cls-16" x="57.64" y="29.07" width="9.53" height="9.53"/><rect class="cls-16" x="57.64" y="19.55" width="9.53" height="9.52"/><rect class="cls-16" x="57.64" y="10.02" width="9.53" height="9.53"/><rect class="cls-16" x="57.64" y="0.5" width="9.53" height="9.52"/><rect class="cls-17" x="48.12" y="95.74" width="9.52" height="9.52"/><rect class="cls-17" x="48.12" y="86.21" width="9.52" height="9.53"/><rect class="cls-17" x="48.12" y="76.69" width="9.52" height="9.52"/><rect class="cls-17" x="48.12" y="67.17" width="9.52" height="9.52"/><rect class="cls-17" x="48.12" y="57.64" width="9.52" height="9.53"/><rect class="cls-17" x="48.12" y="48.12" width="9.52" height="9.52"/><rect class="cls-17" x="48.12" y="38.6" width="9.52" height="9.52"/><rect class="cls-17" x="48.12" y="29.07" width="9.52" height="9.53"/><rect class="cls-17" x="48.12" y="19.55" width="9.52" height="9.52"/><rect class="cls-17" x="48.12" y="10.02" width="9.52" height="9.53"/><rect class="cls-17" x="48.12" y="0.5" width="9.52" height="9.52"/><rect class="cls-18" x="38.6" y="67.17" width="9.52" height="9.52"/><rect class="cls-18" x="38.6" y="57.64" width="9.52" height="9.53"/><rect class="cls-18" x="38.6" y="48.12" width="9.52" height="9.52"/><rect class="cls-18" x="38.6" y="38.6" width="9.52" height="9.52"/><rect class="cls-18" x="38.6" y="29.07" width="9.52" height="9.53"/><rect class="cls-18" x="38.6" y="19.55" width="9.52" height="9.52"/><rect class="cls-18" x="38.6" y="10.02" width="9.52" height="9.53"/><rect class="cls-18" x="38.6" y="0.5" width="9.52" height="9.52"/><rect class="cls-19" x="29.07" y="133.83" width="9.53" height="9.53"/><rect class="cls-19" x="29.07" y="124.31" width="9.53" height="9.52"/><rect class="cls-19" x="29.07" y="114.79" width="9.53" height="9.52"/><rect class="cls-19" x="29.07" y="105.26" width="9.53" height="9.53"/><rect class="cls-19" x="29.07" y="95.74" width="9.53" height="9.52"/><rect class="cls-19" x="29.07" y="86.21" width="9.53" height="9.53"/><rect class="cls-19" x="29.07" y="76.69" width="9.53" height="9.52"/><rect class="cls-19" x="29.07" y="67.17" width="9.53" height="9.52"/><rect class="cls-19" x="29.07" y="57.64" width="9.53" height="9.53"/><rect class="cls-19" x="29.07" y="48.12" width="9.53" height="9.52"/><rect class="cls-19" x="29.07" y="38.6" width="9.53" height="9.52"/><rect class="cls-19" x="29.07" y="29.07" width="9.53" height="9.53"/><rect class="cls-19" x="29.07" y="19.55" width="9.53" height="9.52"/><rect class="cls-19" x="29.07" y="10.02" width="9.53" height="9.53"/><rect class="cls-19" x="29.07" y="0.5" width="9.53" height="9.52"/><rect class="cls-20" x="19.55" y="114.79" width="9.52" height="9.52"/><rect class="cls-20" x="19.55" y="105.26" width="9.52" height="9.53"/><rect class="cls-20" x="19.55" y="95.74" width="9.52" height="9.52"/><rect class="cls-20" x="19.55" y="86.21" width="9.52" height="9.53"/><rect class="cls-20" x="19.55" y="76.69" width="9.52" height="9.52"/><rect class="cls-20" x="19.55" y="67.17" width="9.52" height="9.52"/><rect class="cls-20" x="19.55" y="57.64" width="9.52" height="9.53"/><rect class="cls-20" x="19.55" y="48.12" width="9.52" height="9.52"/><rect class="cls-20" x="19.55" y="38.6" width="9.52" height="9.52"/><rect class="cls-20" x="19.55" y="29.07" width="9.52" height="9.53"/><rect class="cls-20" x="19.55" y="19.55" width="9.52" height="9.52"/><rect class="cls-20" x="19.55" y="10.02" width="9.52" height="9.53"/><rect class="cls-20" x="19.55" y="0.5" width="9.52" height="9.52"/><rect class="cls-21" x="10.02" y="124.31" width="9.53" height="9.52"/><rect class="cls-21" x="10.02" y="114.79" width="9.53" height="9.52"/><rect class="cls-21" x="10.02" y="105.26" width="9.53" height="9.53"/><rect class="cls-21" x="10.02" y="95.74" width="9.53" height="9.52"/><rect class="cls-21" x="10.02" y="86.21" width="9.53" height="9.53"/><rect class="cls-21" x="10.02" y="76.69" width="9.53" height="9.52"/><rect class="cls-21" x="10.02" y="67.17" width="9.53" height="9.52"/><rect class="cls-21" x="10.02" y="57.64" width="9.53" height="9.53"/><rect class="cls-21" x="10.02" y="48.12" width="9.53" height="9.52"/><rect class="cls-21" x="10.02" y="38.6" width="9.53" height="9.52"/><rect class="cls-21" x="10.02" y="29.07" width="9.53" height="9.53"/><rect class="cls-21" x="10.02" y="19.55" width="9.53" height="9.52"/><rect class="cls-21" x="10.02" y="10.02" width="9.53" height="9.53"/><rect class="cls-21" x="10.02" y="0.5" width="9.53" height="9.52"/><rect class="cls-22" x="0.5" y="152.88" width="9.52" height="9.52"/><rect class="cls-22" x="0.5" y="143.36" width="9.52" height="9.52"/><rect class="cls-22" x="0.5" y="133.83" width="9.52" height="9.53"/><rect class="cls-22" x="0.5" y="124.31" width="9.52" height="9.52"/><rect class="cls-22" x="0.5" y="114.79" width="9.52" height="9.52"/><rect class="cls-22" x="0.5" y="105.26" width="9.52" height="9.53"/><rect class="cls-22" x="0.5" y="95.74" width="9.52" height="9.52"/><rect class="cls-22" x="0.5" y="86.21" width="9.52" height="9.53"/><rect class="cls-22" x="0.5" y="76.69" width="9.52" height="9.52"/><rect class="cls-22" x="0.5" y="67.17" width="9.52" height="9.52"/><rect class="cls-22" x="0.5" y="57.64" width="9.52" height="9.53"/><rect class="cls-22" x="0.5" y="48.12" width="9.52" height="9.52"/><rect class="cls-22" x="0.5" y="38.6" width="9.52" height="9.52"/><rect class="cls-22" x="0.5" y="29.07" width="9.52" height="9.53"/><rect class="cls-22" x="0.5" y="19.55" width="9.52" height="9.52"/><rect class="cls-22" x="0.5" y="10.02" width="9.52" height="9.53"/><rect class="cls-22" x="0.5" y="0.5" width="9.52" height="9.52"/><polygon class="cls-23" points="0.5 10.02 0.5 0.5 10.02 0.5 19.55 0.5 29.07 0.5 38.6 0.5 48.12 0.5 57.64 0.5 67.17 0.5 76.69 0.5 86.21 0.5 95.74 0.5 105.26 0.5 114.79 0.5 124.31 0.5 133.83 0.5 143.36 0.5 152.88 0.5 162.4 0.5 171.93 0.5 181.45 0.5 190.98 0.5 200.5 0.5 200.5 10.02 200.5 19.55 200.5 29.07 200.5 38.6 200.5 48.12 200.5 57.64 200.5 67.17 200.5 76.69 200.5 86.21 200.5 95.74 200.5 105.26 200.5 114.79 200.5 124.31 200.5 133.83 200.5 143.36 200.5 152.88 200.5 162.4 200.5 171.93 200.5 181.45 200.5 190.98 200.5 200.5 190.98 200.5 181.45 200.5 171.93 200.5 162.4 200.5 152.88 200.5 143.36 200.5 133.83 200.5 124.31 200.5 114.79 200.5 105.26 200.5 95.74 200.5 86.21 200.5 76.69 200.5 67.17 200.5 57.64 200.5 48.12 200.5 38.6 200.5 29.07 200.5 19.55 200.5 10.02 200.5 0.5 200.5 0.5 190.98 0.5 181.45 0.5 171.93 0.5 162.4 0.5 152.88 0.5 143.36 0.5 133.83 0.5 124.31 0.5 114.79 0.5 105.26 0.5 95.74 0.5 86.21 0.5 76.69 0.5 67.17 0.5 57.64 0.5 48.12 0.5 38.6 0.5 29.07 0.5 19.55 0.5 10.02"/><polyline class="cls-23" points="0.5 190.98 10.02 190.98 19.55 190.98 29.07 190.98 38.6 190.98 48.12 190.98 57.64 190.98 67.17 190.98 76.69 190.98 86.21 190.98 95.74 190.98 105.26 190.98 114.79 190.98 124.31 190.98 133.83 190.98 143.36 190.98 152.88 190.98 162.4 190.98 171.93 190.98 181.45 190.98 190.98 190.98 200.5 190.98"/><polyline class="cls-23" points="0.5 181.45 10.02 181.45 19.55 181.45 29.07 181.45 38.6 181.45 48.12 181.45 57.64 181.45 67.17 181.45 76.69 181.45 86.21 181.45 95.74 181.45 105.26 181.45 114.79 181.45 124.31 181.45 133.83 181.45 143.36 181.45 152.88 181.45 162.4 181.45 171.93 181.45 181.45 181.45 190.98 181.45 200.5 181.45"/><polyline class="cls-23" points="0.5 171.93 10.02 171.93 19.55 171.93 29.07 171.93 38.6 171.93 48.12 171.93 57.64 171.93 67.17 171.93 76.69 171.93 86.21 171.93 95.74 171.93 105.26 171.93 114.79 171.93 124.31 171.93 133.83 171.93 143.36 171.93 152.88 171.93 162.4 171.93 171.93 171.93 181.45 171.93 190.98 171.93 200.5 171.93"/><polyline class="cls-23" points="0.5 162.4 10.02 162.4 19.55 162.4 29.07 162.4 38.6 162.4 48.12 162.4 57.64 162.4 67.17 162.4 76.69 162.4 86.21 162.4 95.74 162.4 105.26 162.4 114.79 162.4 124.31 162.4 133.83 162.4 143.36 162.4 152.88 162.4 162.4 162.4 171.93 162.4 181.45 162.4 190.98 162.4 200.5 162.4"/><polyline class="cls-23" points="0.5 152.88 10.02 152.88 19.55 152.88 29.07 152.88 38.6 152.88 48.12 152.88 57.64 152.88 67.17 152.88 76.69 152.88 86.21 152.88 95.74 152.88 105.26 152.88 114.79 152.88 124.31 152.88 133.83 152.88 143.36 152.88 152.88 152.88 162.4 152.88 171.93 152.88 181.45 152.88 190.98 152.88 200.5 152.88"/><polyline class="cls-23" points="0.5 143.36 10.02 143.36 19.55 143.36 29.07 143.36 38.6 143.36 48.12 143.36 57.64 143.36 67.17 143.36 76.69 143.36 86.21 143.36 95.74 143.36 105.26 143.36 114.79 143.36 124.31 143.36 133.83 143.36 143.36 143.36 152.88 143.36 162.4 143.36 171.93 143.36 181.45 143.36 190.98 143.36 200.5 143.36"/><polyline class="cls-23" points="0.5 133.83 10.02 133.83 19.55 133.83 29.07 133.83 38.6 133.83 48.12 133.83 57.64 133.83 67.17 133.83 76.69 133.83 86.21 133.83 95.74 133.83 105.26 133.83 114.79 133.83 124.31 133.83 133.83 133.83 143.36 133.83 152.88 133.83 162.4 133.83 171.93 133.83 181.45 133.83 190.98 133.83 200.5 133.83"/><polyline class="cls-23" points="0.5 124.31 10.02 124.31 19.55 124.31 29.07 124.31 38.6 124.31 48.12 124.31 57.64 124.31 67.17 124.31 76.69 124.31 86.21 124.31 95.74 124.31 105.26 124.31 114.79 124.31 124.31 124.31 133.83 124.31 143.36 124.31 152.88 124.31 162.4 124.31 171.93 124.31 181.45 124.31 190.98 124.31 200.5 124.31"/><polyline class="cls-23" points="0.5 114.79 10.02 114.79 19.55 114.79 29.07 114.79 38.6 114.79 48.12 114.79 57.64 114.79 67.17 114.79 76.69 114.79 86.21 114.79 95.74 114.79 105.26 114.79 114.79 114.79 124.31 114.79 133.83 114.79 143.36 114.79 152.88 114.79 162.4 114.79 171.93 114.79 181.45 114.79 190.98 114.79 200.5 114.79"/><polyline class="cls-23" points="0.5 105.26 10.02 105.26 19.55 105.26 29.07 105.26 38.6 105.26 48.12 105.26 57.64 105.26 67.17 105.26 76.69 105.26 86.21 105.26 95.74 105.26 105.26 105.26 114.79 105.26 124.31 105.26 133.83 105.26 143.36 105.26 152.88 105.26 162.4 105.26 171.93 105.26 181.45 105.26 190.98 105.26 200.5 105.26"/><polyline class="cls-23" points="0.5 95.74 10.02 95.74 19.55 95.74 29.07 95.74 38.6 95.74 48.12 95.74 57.64 95.74 67.17 95.74 76.69 95.74 86.21 95.74 95.74 95.74 105.26 95.74 114.79 95.74 124.31 95.74 133.83 95.74 143.36 95.74 152.88 95.74 162.4 95.74 171.93 95.74 181.45 95.74 190.98 95.74 200.5 95.74"/><polyline class="cls-23" points="0.5 86.21 10.02 86.21 19.55 86.21 29.07 86.21 38.6 86.21 48.12 86.21 57.64 86.21 67.17 86.21 76.69 86.21 86.21 86.21 95.74 86.21 105.26 86.21 114.79 86.21 124.31 86.21 133.83 86.21 143.36 86.21 152.88 86.21 162.4 86.21 171.93 86.21 181.45 86.21 190.98 86.21 200.5 86.21"/><polyline class="cls-23" points="0.5 76.69 10.02 76.69 19.55 76.69 29.07 76.69 38.6 76.69 48.12 76.69 57.64 76.69 67.17 76.69 76.69 76.69 86.21 76.69 95.74 76.69 105.26 76.69 114.79 76.69 124.31 76.69 133.83 76.69 143.36 76.69 152.88 76.69 162.4 76.69 171.93 76.69 181.45 76.69 190.98 76.69 200.5 76.69"/><polyline class="cls-23" points="0.5 67.17 10.02 67.17 19.55 67.17 29.07 67.17 38.6 67.17 48.12 67.17 57.64 67.17 67.17 67.17 76.69 67.17 86.21 67.17 95.74 67.17 105.26 67.17 114.79 67.17 124.31 67.17 133.83 67.17 143.36 67.17 152.88 67.17 162.4 67.17 171.93 67.17 181.45 67.17 190.98 67.17 200.5 67.17"/><polyline class="cls-23" points="0.5 57.64 10.02 57.64 19.55 57.64 29.07 57.64 38.6 57.64 48.12 57.64 57.64 57.64 67.17 57.64 76.69 57.64 86.21 57.64 95.74 57.64 105.26 57.64 114.79 57.64 124.31 57.64 133.83 57.64 143.36 57.64 152.88 57.64 162.4 57.64 171.93 57.64 181.45 57.64 190.98 57.64 200.5 57.64"/><polyline class="cls-23" points="0.5 48.12 10.02 48.12 19.55 48.12 29.07 48.12 38.6 48.12 48.12 48.12 57.64 48.12 67.17 48.12 76.69 48.12 86.21 48.12 95.74 48.12 105.26 48.12 114.79 48.12 124.31 48.12 133.83 48.12 143.36 48.12 152.88 48.12 162.4 48.12 171.93 48.12 181.45 48.12 190.98 48.12 200.5 48.12"/><polyline class="cls-23" points="0.5 38.6 10.02 38.6 19.55 38.6 29.07 38.6 38.6 38.6 48.12 38.6 57.64 38.6 67.17 38.6 76.69 38.6 86.21 38.6 95.74 38.6 105.26 38.6 114.79 38.6 124.31 38.6 133.83 38.6 143.36 38.6 152.88 38.6 162.4 38.6 171.93 38.6 181.45 38.6 190.98 38.6 200.5 38.6"/><polyline class="cls-23" points="0.5 29.07 10.02 29.07 19.55 29.07 29.07 29.07 38.6 29.07 48.12 29.07 57.64 29.07 67.17 29.07 76.69 29.07 86.21 29.07 95.74 29.07 105.26 29.07 114.79 29.07 124.31 29.07 133.83 29.07 143.36 29.07 152.88 29.07 162.4 29.07 171.93 29.07 181.45 29.07 190.98 29.07 200.5 29.07"/><polyline class="cls-23" points="0.5 19.55 10.02 19.55 19.55 19.55 29.07 19.55 38.6 19.55 48.12 19.55 57.64 19.55 67.17 19.55 76.69 19.55 86.21 19.55 95.74 19.55 105.26 19.55 114.79 19.55 124.31 19.55 133.83 19.55 143.36 19.55 152.88 19.55 162.4 19.55 171.93 19.55 181.45 19.55 190.98 19.55 200.5 19.55"/><polyline class="cls-23" points="0.5 10.02 10.02 10.02 19.55 10.02 29.07 10.02 38.6 10.02 48.12 10.02 57.64 10.02 67.17 10.02 76.69 10.02 86.21 10.02 95.74 10.02 105.26 10.02 114.79 10.02 124.31 10.02 133.83 10.02 143.36 10.02 152.88 10.02 162.4 10.02 171.93 10.02 181.45 10.02 190.98 10.02 200.5 10.02"/><polyline class="cls-23" points="190.98 0.5 190.98 10.02 190.98 19.55 190.98 29.07 190.98 38.6 190.98 48.12 190.98 57.64 190.98 67.17 190.98 76.69 190.98 86.21 190.98 95.74 190.98 105.26 190.98 114.79 190.98 124.31 190.98 133.83 190.98 143.36 190.98 152.88 190.98 162.4 190.98 171.93 190.98 181.45 190.98 190.98 190.98 200.5"/><polyline class="cls-23" points="181.45 0.5 181.45 10.02 181.45 19.55 181.45 29.07 181.45 38.6 181.45 48.12 181.45 57.64 181.45 67.17 181.45 76.69 181.45 86.21 181.45 95.74 181.45 105.26 181.45 114.79 181.45 124.31 181.45 133.83 181.45 143.36 181.45 152.88 181.45 162.4 181.45 171.93 181.45 181.45 181.45 190.98 181.45 200.5"/><polyline class="cls-23" points="171.93 0.5 171.93 10.02 171.93 19.55 171.93 29.07 171.93 38.6 171.93 48.12 171.93 57.64 171.93 67.17 171.93 76.69 171.93 86.21 171.93 95.74 171.93 105.26 171.93 114.79 171.93 124.31 171.93 133.83 171.93 143.36 171.93 152.88 171.93 162.4 171.93 171.93 171.93 181.45 171.93 190.98 171.93 200.5"/><polyline class="cls-23" points="162.4 0.5 162.4 10.02 162.4 19.55 162.4 29.07 162.4 38.6 162.4 48.12 162.4 57.64 162.4 67.17 162.4 76.69 162.4 86.21 162.4 95.74 162.4 105.26 162.4 114.79 162.4 124.31 162.4 133.83 162.4 143.36 162.4 152.88 162.4 162.4 162.4 171.93 162.4 181.45 162.4 190.98 162.4 200.5"/><polyline class="cls-23" points="152.88 0.5 152.88 10.02 152.88 19.55 152.88 29.07 152.88 38.6 152.88 48.12 152.88 57.64 152.88 67.17 152.88 76.69 152.88 86.21 152.88 95.74 152.88 105.26 152.88 114.79 152.88 124.31 152.88 133.83 152.88 143.36 152.88 152.88 152.88 162.4 152.88 171.93 152.88 181.45 152.88 190.98 152.88 200.5"/><polyline class="cls-23" points="143.36 0.5 143.36 10.02 143.36 19.55 143.36 29.07 143.36 38.6 143.36 48.12 143.36 57.64 143.36 67.17 143.36 76.69 143.36 86.21 143.36 95.74 143.36 105.26 143.36 114.79 143.36 124.31 143.36 133.83 143.36 143.36 143.36 152.88 143.36 162.4 143.36 171.93 143.36 181.45 143.36 190.98 143.36 200.5"/><polyline class="cls-23" points="133.83 0.5 133.83 10.02 133.83 19.55 133.83 29.07 133.83 38.6 133.83 48.12 133.83 57.64 133.83 67.17 133.83 76.69 133.83 86.21 133.83 95.74 133.83 105.26 133.83 114.79 133.83 124.31 133.83 133.83 133.83 143.36 133.83 152.88 133.83 162.4 133.83 171.93 133.83 181.45 133.83 190.98 133.83 200.5"/><polyline class="cls-23" points="124.31 0.5 124.31 10.02 124.31 19.55 124.31 29.07 124.31 38.6 124.31 48.12 124.31 57.64 124.31 67.17 124.31 76.69 124.31 86.21 124.31 95.74 124.31 105.26 124.31 114.79 124.31 124.31 124.31 133.83 124.31 143.36 124.31 152.88 124.31 162.4 124.31 171.93 124.31 181.45 124.31 190.98 124.31 200.5"/><polyline class="cls-23" points="114.79 0.5 114.79 10.02 114.79 19.55 114.79 29.07 114.79 38.6 114.79 48.12 114.79 57.64 114.79 67.17 114.79 76.69 114.79 86.21 114.79 95.74 114.79 105.26 114.79 114.79 114.79 124.31 114.79 133.83 114.79 143.36 114.79 152.88 114.79 162.4 114.79 171.93 114.79 181.45 114.79 190.98 114.79 200.5"/><polyline class="cls-23" points="105.26 0.5 105.26 10.02 105.26 19.55 105.26 29.07 105.26 38.6 105.26 48.12 105.26 57.64 105.26 67.17 105.26 76.69 105.26 86.21 105.26 95.74 105.26 105.26 105.26 114.79 105.26 124.31 105.26 133.83 105.26 143.36 105.26 152.88 105.26 162.4 105.26 171.93 105.26 181.45 105.26 190.98 105.26 200.5"/><polyline class="cls-23" points="95.74 0.5 95.74 10.02 95.74 19.55 95.74 29.07 95.74 38.6 95.74 48.12 95.74 57.64 95.74 67.17 95.74 76.69 95.74 86.21 95.74 95.74 95.74 105.26 95.74 114.79 95.74 124.31 95.74 133.83 95.74 143.36 95.74 152.88 95.74 162.4 95.74 171.93 95.74 181.45 95.74 190.98 95.74 200.5"/><polyline class="cls-23" points="86.21 0.5 86.21 10.02 86.21 19.55 86.21 29.07 86.21 38.6 86.21 48.12 86.21 57.64 86.21 67.17 86.21 76.69 86.21 86.21 86.21 95.74 86.21 105.26 86.21 114.79 86.21 124.31 86.21 133.83 86.21 143.36 86.21 152.88 86.21 162.4 86.21 171.93 86.21 181.45 86.21 190.98 86.21 200.5"/><polyline class="cls-23" points="76.69 0.5 76.69 10.02 76.69 19.55 76.69 29.07 76.69 38.6 76.69 48.12 76.69 57.64 76.69 67.17 76.69 76.69 76.69 86.21 76.69 95.74 76.69 105.26 76.69 114.79 76.69 124.31 76.69 133.83 76.69 143.36 76.69 152.88 76.69 162.4 76.69 171.93 76.69 181.45 76.69 190.98 76.69 200.5"/><polyline class="cls-23" points="67.17 0.5 67.17 10.02 67.17 19.55 67.17 29.07 67.17 38.6 67.17 48.12 67.17 57.64 67.17 67.17 67.17 76.69 67.17 86.21 67.17 95.74 67.17 105.26 67.17 114.79 67.17 124.31 67.17 133.83 67.17 143.36 67.17 152.88 67.17 162.4 67.17 171.93 67.17 181.45 67.17 190.98 67.17 200.5"/><polyline class="cls-23" points="57.64 0.5 57.64 10.02 57.64 19.55 57.64 29.07 57.64 38.6 57.64 48.12 57.64 57.64 57.64 67.17 57.64 76.69 57.64 86.21 57.64 95.74 57.64 105.26 57.64 114.79 57.64 124.31 57.64 133.83 57.64 143.36 57.64 152.88 57.64 162.4 57.64 171.93 57.64 181.45 57.64 190.98 57.64 200.5"/><polyline class="cls-23" points="48.12 0.5 48.12 10.02 48.12 19.55 48.12 29.07 48.12 38.6 48.12 48.12 48.12 57.64 48.12 67.17 48.12 76.69 48.12 86.21 48.12 95.74 48.12 105.26 48.12 114.79 48.12 124.31 48.12 133.83 48.12 143.36 48.12 152.88 48.12 162.4 48.12 171.93 48.12 181.45 48.12 190.98 48.12 200.5"/><polyline class="cls-23" points="38.6 0.5 38.6 10.02 38.6 19.55 38.6 29.07 38.6 38.6 38.6 48.12 38.6 57.64 38.6 67.17 38.6 76.69 38.6 86.21 38.6 95.74 38.6 105.26 38.6 114.79 38.6 124.31 38.6 133.83 38.6 143.36 38.6 152.88 38.6 162.4 38.6 171.93 38.6 181.45 38.6 190.98 38.6 200.5"/><polyline class="cls-23" points="29.07 0.5 29.07 10.02 29.07 19.55 29.07 29.07 29.07 38.6 29.07 48.12 29.07 57.64 29.07 67.17 29.07 76.69 29.07 86.21 29.07 95.74 29.07 105.26 29.07 114.79 29.07 124.31 29.07 133.83 29.07 143.36 29.07 152.88 29.07 162.4 29.07 171.93 29.07 181.45 29.07 190.98 29.07 200.5"/><polyline class="cls-23" points="19.55 0.5 19.55 10.02 19.55 19.55 19.55 29.07 19.55 38.6 19.55 48.12 19.55 57.64 19.55 67.17 19.55 76.69 19.55 86.21 19.55 95.74 19.55 105.26 19.55 114.79 19.55 124.31 19.55 133.83 19.55 143.36 19.55 152.88 19.55 162.4 19.55 171.93 19.55 181.45 19.55 190.98 19.55 200.5"/><polyline class="cls-23" points="10.02 0.5 10.02 10.02 10.02 19.55 10.02 29.07 10.02 38.6 10.02 48.12 10.02 57.64 10.02 67.17 10.02 76.69 10.02 86.21 10.02 95.74 10.02 105.26 10.02 114.79 10.02 124.31 10.02 133.83 10.02 143.36 10.02 152.88 10.02 162.4 10.02 171.93 10.02 181.45 10.02 190.98 10.02 200.5"/></g></g></svg>