<svg xmlns="http://www.w3.org/2000/svg" viewBox="0 0 200 180.95"><defs><style>.cls-1{fill:#9c171b;}.cls-2{fill:#d10003;}.cls-3{fill:#ff0112;}.cls-4{fill:#ff5e15;}.cls-5{fill:#ff9802;}.cls-6{fill:#fdcd00;}.cls-7{fill:#fffd00;}.cls-8{fill:#cbff00;}.cls-9{fill:#05fb05;}.cls-10{fill:#0c0;}.cls-11{fill:#019900;}.cls-12{fill:#036500;}.cls-13{fill:#009a9e;}.cls-14{fill:#0796fe;}.cls-15{fill:#0268f3;}.cls-16{fill:#0033fb;}.cls-17{fill:#02009f;}.cls-18{fill:#9800d5;}.cls-19{fill:#ce01ff;}.cls-20{fill:#f868ff;}.cls-21{fill:#ff32ff;}</style></defs><title>Asset 5</title><g id="Layer_2" data-name="Layer 2"><g id="Layer_1-2" data-name="Layer 1"><g id="_Group_" data-name="&lt;Group&gt;"><rect class="cls-1" x="190.48" y="133.33" width="9.52" height="9.53"/><rect class="cls-1" x="190.48" y="123.81" width="9.52" height="9.52"/><rect class="cls-1" x="190.48" y="114.29" width="9.52" height="9.52"/><rect class="cls-1" x="190.48" y="104.76" width="9.52" height="9.53"/><rect class="cls-1" x="190.48" y="95.24" width="9.52" height="9.52"/><rect class="cls-1" x="190.48" y="85.71" width="9.52" height="9.53"/><rect class="cls-1" x="190.48" y="76.19" width="9.52" height="9.52"/><rect class="cls-1" x="190.48" y="66.67" width="9.52" height="9.52"/><rect class="cls-1" x="190.48" y="57.14" width="9.52" height="9.53"/><rect class="cls-1" x="190.48" y="47.62" width="9.52" height="9.52"/><rect class="cls-1" x="190.48" y="38.1" width="9.52" height="9.52"/><rect class="cls-1" x="190.48" y="28.57" width="9.52" height="9.53"/><rect class="cls-1" x="190.48" y="19.05" width="9.52" height="9.52"/><rect class="cls-1" x="190.48" y="9.52" width="9.52" height="9.53"/><rect class="cls-1" x="190.48" width="9.52" height="9.52"/><rect class="cls-2" x="180.95" y="104.76" width="9.53" height="9.53"/><rect class="cls-2" x="180.95" y="95.24" width="9.53" height="9.52"/><rect class="cls-2" x="180.95" y="85.71" width="9.53" height="9.53"/><rect class="cls-2" x="180.95" y="76.19" width="9.53" height="9.52"/><rect class="cls-2" x="180.95" y="66.67" width="9.53" height="9.52"/><rect class="cls-2" x="180.95" y="57.14" width="9.53" height="9.53"/><rect class="cls-2" x="180.95" y="47.62" width="9.53" height="9.52"/><rect class="cls-2" x="180.95" y="38.1" width="9.53" height="9.52"/><rect class="cls-2" x="180.95" y="28.57" width="9.53" height="9.53"/><rect class="cls-2" x="180.95" y="19.05" width="9.53" height="9.52"/><rect class="cls-2" x="180.95" y="9.52" width="9.53" height="9.53"/><rect class="cls-2" x="180.95" width="9.53" height="9.52"/><rect class="cls-3" x="171.43" y="123.81" width="9.52" height="9.52"/><rect class="cls-3" x="171.43" y="114.29" width="9.52" height="9.52"/><rect class="cls-3" x="171.43" y="104.76" width="9.52" height="9.53"/><rect class="cls-3" x="171.43" y="95.24" width="9.52" height="9.52"/><rect class="cls-3" x="171.43" y="85.71" width="9.52" height="9.53"/><rect class="cls-3" x="171.43" y="76.19" width="9.52" height="9.52"/><rect class="cls-3" x="171.43" y="66.67" width="9.52" height="9.52"/><rect class="cls-3" x="171.43" y="57.14" width="9.52" height="9.53"/><rect class="cls-3" x="171.43" y="47.62" width="9.52" height="9.52"/><rect class="cls-3" x="171.43" y="38.1" width="9.52" height="9.52"/><rect class="cls-3" x="171.43" y="28.57" width="9.52" height="9.53"/><rect class="cls-3" x="171.43" y="19.05" width="9.52" height="9.52"/><rect class="cls-3" x="171.43" y="9.52" width="9.52" height="9.53"/><rect class="cls-3" x="171.43" width="9.52" height="9.52"/><rect class="cls-4" x="161.9" y="85.71" width="9.53" height="9.53"/><rect class="cls-4" x="161.9" y="76.19" width="9.53" height="9.52"/><rect class="cls-4" x="161.9" y="66.67" width="9.53" height="9.52"/><rect class="cls-4" x="161.9" y="57.14" width="9.53" height="9.53"/><rect class="cls-4" x="161.9" y="47.62" width="9.53" height="9.52"/><rect class="cls-4" x="161.9" y="38.1" width="9.53" height="9.52"/><rect class="cls-4" x="161.9" y="28.57" width="9.53" height="9.53"/><rect class="cls-4" x="161.9" y="19.05" width="9.53" height="9.52"/><rect class="cls-4" x="161.9" y="9.52" width="9.53" height="9.53"/><rect class="cls-4" x="161.9" width="9.53" height="9.52"/><rect class="cls-5" x="152.38" y="104.76" width="9.52" height="9.53"/><rect class="cls-5" x="152.38" y="95.24" width="9.52" height="9.52"/><rect class="cls-5" x="152.38" y="85.71" width="9.52" height="9.53"/><rect class="cls-5" x="152.38" y="76.19" width="9.52" height="9.52"/><rect class="cls-5" x="152.38" y="66.67" width="9.52" height="9.52"/><rect class="cls-5" x="152.38" y="57.14" width="9.52" height="9.53"/><rect class="cls-5" x="152.38" y="47.62" width="9.52" height="9.52"/><rect class="cls-5" x="152.38" y="38.1" width="9.52" height="9.52"/><rect class="cls-5" x="152.38" y="28.57" width="9.52" height="9.53"/><rect class="cls-5" x="152.38" y="19.05" width="9.52" height="9.52"/><rect class="cls-5" x="152.38" y="9.52" width="9.52" height="9.53"/><rect class="cls-5" x="152.38" width="9.52" height="9.52"/><rect class="cls-6" x="142.86" y="76.19" width="9.52" height="9.52"/><rect class="cls-6" x="142.86" y="66.67" width="9.52" height="9.52"/><rect class="cls-6" x="142.86" y="57.14" width="9.52" height="9.53"/><rect class="cls-6" x="142.86" y="47.62" width="9.52" height="9.52"/><rect class="cls-6" x="142.86" y="38.1" width="9.52" height="9.52"/><rect class="cls-6" x="142.86" y="28.57" width="9.52" height="9.53"/><rect class="cls-6" x="142.86" y="19.05" width="9.52" height="9.52"/><rect class="cls-6" x="142.86" y="9.52" width="9.52" height="9.53"/><rect class="cls-6" x="142.86" width="9.52" height="9.52"/><rect class="cls-7" x="133.33" y="133.33" width="9.53" height="9.53"/><rect class="cls-7" x="133.33" y="123.81" width="9.53" height="9.52"/><rect class="cls-7" x="133.33" y="114.29" width="9.53" height="9.52"/><rect class="cls-7" x="133.33" y="104.76" width="9.53" height="9.53"/><rect class="cls-7" x="133.33" y="95.24" width="9.53" height="9.52"/><rect class="cls-7" x="133.33" y="85.71" width="9.53" height="9.53"/><rect class="cls-7" x="133.33" y="76.19" width="9.53" height="9.52"/><rect class="cls-7" x="133.33" y="66.67" width="9.53" height="9.52"/><rect class="cls-7" x="133.33" y="57.14" width="9.53" height="9.53"/><rect class="cls-7" x="133.33" y="47.62" width="9.53" height="9.52"/><rect class="cls-7" x="133.33" y="38.1" width="9.53" height="9.52"/><rect class="cls-7" x="133.33" y="28.57" width="9.53" height="9.53"/><rect class="cls-7" x="133.33" y="19.05" width="9.53" height="9.52"/><rect class="cls-7" x="133.33" y="9.52" width="9.53" height="9.53"/><rect class="cls-7" x="133.33" width="9.53" height="9.52"/><rect class="cls-8" x="123.81" y="85.71" width="9.52" height="9.53"/><rect class="cls-8" x="123.81" y="76.19" width="9.52" height="9.52"/><rect class="cls-8" x="123.81" y="66.67" width="9.52" height="9.52"/><rect class="cls-8" x="123.81" y="57.14" width="9.52" height="9.53"/><rect class="cls-8" x="123.81" y="47.62" width="9.52" height="9.52"/><rect class="cls-8" x="123.81" y="38.1" width="9.52" height="9.52"/><rect class="cls-8" x="123.81" y="28.57" width="9.52" height="9.53"/><rect class="cls-8" x="123.81" y="19.05" width="9.52" height="9.52"/><rect class="cls-8" x="123.81" y="9.52" width="9.52" height="9.53"/><rect class="cls-8" x="123.81" width="9.52" height="9.52"/><rect class="cls-9" x="114.29" y="123.81" width="9.52" height="9.52"/><rect class="cls-9" x="114.29" y="114.29" width="9.52" height="9.52"/><rect class="cls-9" x="114.29" y="104.76" width="9.52" height="9.53"/><rect class="cls-9" x="114.29" y="95.24" width="9.52" height="9.52"/><rect class="cls-9" x="114.29" y="85.71" width="9.52" height="9.53"/><rect class="cls-9" x="114.29" y="76.19" width="9.52" height="9.52"/><rect class="cls-9" x="114.29" y="66.67" width="9.52" height="9.52"/><rect class="cls-9" x="114.29" y="57.14" width="9.52" height="9.53"/><rect class="cls-9" x="114.29" y="47.62" width="9.52" height="9.52"/><rect class="cls-9" x="114.29" y="38.1" width="9.52" height="9.52"/><rect class="cls-9" x="114.29" y="28.57" width="9.52" height="9.53"/><rect class="cls-9" x="114.29" y="19.05" width="9.52" height="9.52"/><rect class="cls-9" x="114.29" y="9.52" width="9.52" height="9.53"/><rect class="cls-9" x="114.29" width="9.52" height="9.52"/><rect class="cls-10" x="104.76" y="95.24" width="9.53" height="9.52"/><rect class="cls-10" x="104.76" y="85.71" width="9.53" height="9.53"/><rect class="cls-10" x="104.76" y="76.19" width="9.53" height="9.52"/><rect class="cls-10" x="104.76" y="66.67" width="9.53" height="9.52"/><rect class="cls-10" x="104.76" y="57.14" width="9.53" height="9.53"/><rect class="cls-10" x="104.76" y="47.62" width="9.53" height="9.52"/><rect class="cls-10" x="104.76" y="38.1" width="9.53" height="9.52"/><rect class="cls-10" x="104.76" y="28.57" width="9.53" height="9.53"/><rect class="cls-10" x="104.76" y="19.05" width="9.53" height="9.52"/><rect class="cls-10" x="104.76" y="9.52" width="9.53" height="9.53"/><rect class="cls-10" x="104.76" width="9.53" height="9.52"/><rect class="cls-11" x="95.24" y="114.29" width="9.52" height="9.52"/><rect class="cls-11" x="95.24" y="104.76" width="9.52" height="9.53"/><rect class="cls-11" x="95.24" y="95.24" width="9.52" height="9.52"/><rect class="cls-11" x="95.24" y="85.71" width="9.52" height="9.53"/><rect class="cls-11" x="95.24" y="76.19" width="9.52" height="9.52"/><rect class="cls-11" x="95.24" y="66.67" width="9.52" height="9.52"/><rect class="cls-11" x="95.24" y="57.14" width="9.52" height="9.53"/><rect class="cls-11" x="95.24" y="47.62" width="9.52" height="9.52"/><rect class="cls-11" x="95.24" y="38.1" width="9.52" height="9.52"/><rect class="cls-11" x="95.24" y="28.57" width="9.52" height="9.53"/><rect class="cls-11" x="95.24" y="19.05" width="9.52" height="9.52"/><rect class="cls-11" x="95.24" y="9.52" width="9.52" height="9.53"/><rect class="cls-11" x="95.24" width="9.52" height="9.52"/><rect class="cls-12" x="85.71" y="66.67" width="9.53" height="9.52"/><rect class="cls-12" x="85.71" y="57.14" width="9.53" height="9.53"/><rect class="cls-12" x="85.71" y="47.62" width="9.53" height="9.52"/><rect class="cls-12" x="85.71" y="38.1" width="9.53" height="9.52"/><rect class="cls-12" x="85.71" y="28.57" width="9.53" height="9.53"/><rect class="cls-12" x="85.71" y="19.05" width="9.53" height="9.52"/><rect class="cls-12" x="85.71" y="9.52" width="9.53" height="9.53"/><rect class="cls-12" x="85.71" width="9.53" height="9.52"/><rect class="cls-13" x="76.19" y="114.29" width="9.52" height="9.52"/><rect class="cls-13" x="76.19" y="104.76" width="9.52" height="9.53"/><rect class="cls-13" x="76.19" y="95.24" width="9.52" height="9.52"/><rect class="cls-13" x="76.19" y="85.71" width="9.52" height="9.53"/><rect class="cls-13" x="76.19" y="76.19" width="9.52" height="9.52"/><rect class="cls-13" x="76.19" y="66.67" width="9.52" height="9.52"/><rect class="cls-13" x="76.19" y="57.14" width="9.52" height="9.53"/><rect class="cls-13" x="76.19" y="47.62" width="9.52" height="9.52"/><rect class="cls-13" x="76.19" y="38.1" width="9.52" height="9.52"/><rect class="cls-13" x="76.19" y="28.57" width="9.52" height="9.53"/><rect class="cls-13" x="76.19" y="19.05" width="9.52" height="9.52"/><rect class="cls-13" x="76.19" y="9.52" width="9.52" height="9.53"/><rect class="cls-13" x="76.19" width="9.52" height="9.52"/><rect class="cls-14" x="66.67" y="133.33" width="9.52" height="9.53"/><rect class="cls-14" x="66.67" y="123.81" width="9.52" height="9.52"/><rect class="cls-14" x="66.67" y="114.29" width="9.52" height="9.52"/><rect class="cls-14" x="66.67" y="104.76" width="9.52" height="9.53"/><rect class="cls-14" x="66.67" y="95.24" width="9.52" height="9.52"/><rect class="cls-14" x="66.67" y="85.71" width="9.52" height="9.53"/><rect class="cls-14" x="66.67" y="76.19" width="9.52" height="9.52"/><rect class="cls-14" x="66.67" y="66.67" width="9.52" height="9.52"/><rect class="cls-14" x="66.67" y="57.14" width="9.52" height="9.53"/><rect class="cls-14" x="66.67" y="47.62" width="9.52" height="9.52"/><rect class="cls-14" x="66.67" y="38.1" width="9.52" height="9.52"/><rect class="cls-14" x="66.67" y="28.57" width="9.52" height="9.53"/><rect class="cls-14" x="66.67" y="19.05" width="9.52" height="9.52"/><rect class="cls-14" x="66.67" y="9.52" width="9.52" height="9.53"/><rect class="cls-14" x="66.67" width="9.52" height="9.52"/><rect class="cls-15" x="57.14" y="171.43" width="9.53" height="9.52"/><rect class="cls-15" x="57.14" y="161.9" width="9.53" height="9.53"/><rect class="cls-15" x="57.14" y="152.38" width="9.53" height="9.52"/><rect class="cls-15" x="57.14" y="142.86" width="9.53" height="9.52"/><rect class="cls-15" x="57.14" y="133.33" width="9.53" height="9.53"/><rect class="cls-15" x="57.14" y="123.81" width="9.53" height="9.52"/><rect class="cls-15" x="57.14" y="114.29" width="9.53" height="9.52"/><rect class="cls-15" x="57.14" y="104.76" width="9.53" height="9.53"/><rect class="cls-15" x="57.14" y="95.24" width="9.53" height="9.52"/><rect class="cls-15" x="57.14" y="85.71" width="9.53" height="9.53"/><rect class="cls-15" x="57.14" y="76.19" width="9.53" height="9.52"/><rect class="cls-15" x="57.14" y="66.67" width="9.53" height="9.52"/><rect class="cls-15" x="57.14" y="57.14" width="9.53" height="9.53"/><rect class="cls-15" x="57.14" y="47.62" width="9.53" height="9.52"/><rect class="cls-15" x="57.14" y="38.1" width="9.53" height="9.52"/><rect class="cls-15" x="57.14" y="28.57" width="9.53" height="9.53"/><rect class="cls-15" x="57.14" y="19.05" width="9.53" height="9.52"/><rect class="cls-15" x="57.14" y="9.52" width="9.53" height="9.53"/><rect class="cls-15" x="57.14" width="9.53" height="9.52"/><rect class="cls-16" x="47.62" y="95.24" width="9.52" height="9.52"/><rect class="cls-16" x="47.62" y="85.71" width="9.52" height="9.53"/><rect class="cls-16" x="47.62" y="76.19" width="9.52" height="9.52"/><rect class="cls-16" x="47.62" y="66.67" width="9.52" height="9.52"/><rect class="cls-16" x="47.62" y="57.14" width="9.52" height="9.53"/><rect class="cls-16" x="47.62" y="47.62" width="9.52" height="9.52"/><rect class="cls-16" x="47.62" y="38.1" width="9.52" height="9.52"/><rect class="cls-16" x="47.62" y="28.57" width="9.52" height="9.53"/><rect class="cls-16" x="47.62" y="19.05" width="9.52" height="9.52"/><rect class="cls-16" x="47.62" y="9.52" width="9.52" height="9.53"/><rect class="cls-16" x="47.62" width="9.52" height="9.52"/><rect class="cls-17" x="38.1" y="66.67" width="9.52" height="9.52"/><rect class="cls-17" x="38.1" y="57.14" width="9.52" height="9.53"/><rect class="cls-17" x="38.1" y="47.62" width="9.52" height="9.52"/><rect class="cls-17" x="38.1" y="38.1" width="9.52" height="9.52"/><rect class="cls-17" x="38.1" y="28.57" width="9.52" height="9.53"/><rect class="cls-17" x="38.1" y="19.05" width="9.52" height="9.52"/><rect class="cls-17" x="38.1" y="9.52" width="9.52" height="9.53"/><rect class="cls-17" x="38.1" width="9.52" height="9.52"/><rect class="cls-18" x="28.57" y="133.33" width="9.53" height="9.53"/><rect class="cls-18" x="28.57" y="123.81" width="9.53" height="9.52"/><rect class="cls-18" x="28.57" y="114.29" width="9.53" height="9.52"/><rect class="cls-18" x="28.57" y="104.76" width="9.53" height="9.53"/><rect class="cls-18" x="28.57" y="95.24" width="9.53" height="9.52"/><rect class="cls-18" x="28.57" y="85.71" width="9.53" height="9.53"/><rect class="cls-18" x="28.57" y="76.19" width="9.53" height="9.52"/><rect class="cls-18" x="28.57" y="66.67" width="9.53" height="9.52"/><rect class="cls-18" x="28.57" y="57.14" width="9.53" height="9.53"/><rect class="cls-18" x="28.57" y="47.62" width="9.53" height="9.52"/><rect class="cls-18" x="28.57" y="38.1" width="9.53" height="9.52"/><rect class="cls-18" x="28.57" y="28.57" width="9.53" height="9.53"/><rect class="cls-18" x="28.57" y="19.05" width="9.53" height="9.52"/><rect class="cls-18" x="28.57" y="9.52" width="9.53" height="9.53"/><rect class="cls-18" x="28.57" width="9.53" height="9.52"/><rect class="cls-19" x="19.05" y="114.29" width="9.52" height="9.52"/><rect class="cls-19" x="19.05" y="104.76" width="9.52" height="9.53"/><rect class="cls-19" x="19.05" y="95.24" width="9.52" height="9.52"/><rect class="cls-19" x="19.05" y="85.71" width="9.52" height="9.53"/><rect class="cls-19" x="19.05" y="76.19" width="9.52" height="9.52"/><rect class="cls-19" x="19.05" y="66.67" width="9.52" height="9.52"/><rect class="cls-19" x="19.05" y="57.14" width="9.52" height="9.53"/><rect class="cls-19" x="19.05" y="47.62" width="9.52" height="9.52"/><rect class="cls-19" x="19.05" y="38.1" width="9.52" height="9.52"/><rect class="cls-19" x="19.05" y="28.57" width="9.52" height="9.53"/><rect class="cls-19" x="19.05" y="19.05" width="9.52" height="9.52"/><rect class="cls-19" x="19.05" y="9.52" width="9.52" height="9.53"/><rect class="cls-19" x="19.05" width="9.52" height="9.52"/><rect class="cls-20" x="9.52" y="123.81" width="9.53" height="9.52"/><rect class="cls-20" x="9.52" y="114.29" width="9.53" height="9.52"/><rect class="cls-20" x="9.52" y="104.76" width="9.53" height="9.53"/><rect class="cls-20" x="9.52" y="95.24" width="9.53" height="9.52"/><rect class="cls-20" x="9.52" y="85.71" width="9.53" height="9.53"/><rect class="cls-20" x="9.52" y="76.19" width="9.53" height="9.52"/><rect class="cls-20" x="9.52" y="66.67" width="9.53" height="9.52"/><rect class="cls-20" x="9.52" y="57.14" width="9.53" height="9.53"/><rect class="cls-20" x="9.52" y="47.62" width="9.53" height="9.52"/><rect class="cls-20" x="9.52" y="38.1" width="9.53" height="9.52"/><rect class="cls-20" x="9.52" y="28.57" width="9.53" height="9.53"/><rect class="cls-20" x="9.52" y="19.05" width="9.53" height="9.52"/><rect class="cls-20" x="9.52" y="9.52" width="9.53" height="9.53"/><rect class="cls-20" x="9.52" width="9.53" height="9.52"/><rect class="cls-21" y="152.38" width="9.52" height="9.52"/><rect class="cls-21" y="142.86" width="9.52" height="9.52"/><rect class="cls-21" y="133.33" width="9.52" height="9.53"/><rect class="cls-21" y="123.81" width="9.52" height="9.52"/><rect class="cls-21" y="114.29" width="9.52" height="9.52"/><rect class="cls-21" y="104.76" width="9.52" height="9.53"/><rect class="cls-21" y="95.24" width="9.52" height="9.52"/><rect class="cls-21" y="85.71" width="9.52" height="9.53"/><rect class="cls-21" y="76.19" width="9.52" height="9.52"/><rect class="cls-21" y="66.67" width="9.52" height="9.52"/><rect class="cls-21" y="57.14" width="9.52" height="9.53"/><rect class="cls-21" y="47.62" width="9.52" height="9.52"/><rect class="cls-21" y="38.1" width="9.52" height="9.52"/><rect class="cls-21" y="28.57" width="9.52" height="9.53"/><rect class="cls-21" y="19.05" width="9.52" height="9.52"/><rect class="cls-21" y="9.52" width="9.52" height="9.53"/><rect class="cls-21" width="9.52" height="9.52"/></g></g></g></svg>