<svg id="Layer_1" data-name="Layer 1" xmlns="http://www.w3.org/2000/svg" viewBox="0 0 201 253.71"><defs><style>.cls-1{fill:#1b1c1d;}.cls-2{fill:#9c171b;}.cls-3{fill:#d10003;}.cls-4{fill:#ff0112;}.cls-5{fill:#ff5e15;}.cls-6{fill:#ff9802;}.cls-7{fill:#fdcd00;}.cls-8{fill:#fffd00;}.cls-9{fill:#cbff00;}.cls-10{fill:#05fb05;}.cls-11{fill:#0c0;}.cls-12{fill:#019900;}.cls-13{fill:#036500;}.cls-14{fill:#009a9e;}.cls-15{fill:#0796fe;}.cls-16{fill:#0268f3;}.cls-17{fill:#0033fb;}.cls-18{fill:#02009f;}.cls-19{fill:#9800d5;}.cls-20{fill:#ce01ff;}.cls-21{fill:#f868ff;}.cls-22{fill:#ff32ff;}.cls-23{fill:none;stroke:#1b1c1d;stroke-miterlimit:10;}.cls-24{font-size:12px;font-family:MyriadPro-Regular, Myriad Pro;}.cls-25{letter-spacing:-0.01em;}.cls-26{letter-spacing:-0.01em;}.cls-27{letter-spacing:0em;}</style></defs><title>rainbow</title><rect class="cls-1" x="190.98" y="243.69" width="9.52" height="9.52"/><rect class="cls-1" x="190.98" y="234.16" width="9.52" height="9.53"/><rect class="cls-1" x="190.98" y="224.64" width="9.52" height="9.52"/><rect class="cls-1" x="190.98" y="215.11" width="9.52" height="9.53"/><rect class="cls-1" x="190.98" y="205.59" width="9.52" height="9.52"/><rect class="cls-1" x="190.98" y="196.07" width="9.52" height="9.52"/><rect class="cls-2" x="190.98" y="186.54" width="9.52" height="9.53"/><rect class="cls-2" x="190.98" y="177.02" width="9.52" height="9.52"/><rect class="cls-2" x="190.98" y="167.5" width="9.52" height="9.52"/><rect class="cls-2" x="190.98" y="157.97" width="9.52" height="9.53"/><rect class="cls-2" x="190.98" y="148.45" width="9.52" height="9.52"/><rect class="cls-2" x="190.98" y="138.92" width="9.52" height="9.53"/><rect class="cls-2" x="190.98" y="129.4" width="9.52" height="9.52"/><rect class="cls-2" x="190.98" y="119.88" width="9.52" height="9.52"/><rect class="cls-2" x="190.98" y="110.35" width="9.52" height="9.53"/><rect class="cls-2" x="190.98" y="100.83" width="9.52" height="9.52"/><rect class="cls-2" x="190.98" y="91.31" width="9.52" height="9.52"/><rect class="cls-2" x="190.98" y="81.78" width="9.52" height="9.53"/><rect class="cls-2" x="190.98" y="72.26" width="9.52" height="9.52"/><rect class="cls-2" x="190.98" y="62.73" width="9.52" height="9.53"/><rect class="cls-2" x="190.98" y="53.21" width="9.52" height="9.52"/><rect class="cls-1" x="181.45" y="243.69" width="9.53" height="9.52"/><rect class="cls-1" x="181.45" y="234.16" width="9.53" height="9.53"/><rect class="cls-1" x="181.45" y="224.64" width="9.53" height="9.52"/><rect class="cls-1" x="181.45" y="215.11" width="9.53" height="9.53"/><rect class="cls-1" x="181.45" y="205.59" width="9.53" height="9.52"/><rect class="cls-1" x="181.45" y="196.07" width="9.53" height="9.52"/><rect class="cls-1" x="181.45" y="186.54" width="9.53" height="9.53"/><rect class="cls-1" x="181.45" y="177.02" width="9.53" height="9.52"/><rect class="cls-1" x="181.45" y="167.5" width="9.53" height="9.52"/><rect class="cls-3" x="181.45" y="157.97" width="9.53" height="9.53"/><rect class="cls-3" x="181.45" y="148.45" width="9.53" height="9.52"/><rect class="cls-3" x="181.45" y="138.92" width="9.53" height="9.53"/><rect class="cls-3" x="181.45" y="129.4" width="9.53" height="9.52"/><rect class="cls-3" x="181.45" y="119.88" width="9.53" height="9.52"/><rect class="cls-3" x="181.45" y="110.35" width="9.53" height="9.53"/><rect class="cls-3" x="181.45" y="100.83" width="9.53" height="9.52"/><rect class="cls-3" x="181.45" y="91.31" width="9.53" height="9.52"/><rect class="cls-3" x="181.45" y="81.78" width="9.53" height="9.53"/><rect class="cls-3" x="181.45" y="72.26" width="9.53" height="9.52"/><rect class="cls-3" x="181.45" y="62.73" width="9.53" height="9.53"/><rect class="cls-3" x="181.45" y="53.21" width="9.53" height="9.52"/><rect class="cls-1" x="171.93" y="243.69" width="9.52" height="9.52"/><rect class="cls-1" x="171.93" y="234.16" width="9.52" height="9.53"/><rect class="cls-1" x="171.93" y="224.64" width="9.52" height="9.52"/><rect class="cls-1" x="171.93" y="215.11" width="9.52" height="9.53"/><rect class="cls-1" x="171.93" y="205.59" width="9.52" height="9.52"/><rect class="cls-1" x="171.93" y="196.07" width="9.52" height="9.52"/><rect class="cls-1" x="171.93" y="186.54" width="9.52" height="9.53"/><rect class="cls-4" x="171.93" y="177.02" width="9.52" height="9.52"/><rect class="cls-4" x="171.93" y="167.5" width="9.52" height="9.52"/><rect class="cls-4" x="171.93" y="157.97" width="9.52" height="9.53"/><rect class="cls-4" x="171.93" y="148.45" width="9.52" height="9.52"/><rect class="cls-4" x="171.93" y="138.92" width="9.52" height="9.53"/><rect class="cls-4" x="171.93" y="129.4" width="9.52" height="9.52"/><rect class="cls-4" x="171.93" y="119.88" width="9.52" height="9.52"/><rect class="cls-4" x="171.93" y="110.35" width="9.52" height="9.53"/><rect class="cls-4" x="171.93" y="100.83" width="9.52" height="9.52"/><rect class="cls-4" x="171.93" y="91.31" width="9.52" height="9.52"/><rect class="cls-4" x="171.93" y="81.78" width="9.52" height="9.53"/><rect class="cls-4" x="171.93" y="72.26" width="9.52" height="9.52"/><rect class="cls-4" x="171.93" y="62.73" width="9.52" height="9.53"/><rect class="cls-4" x="171.93" y="53.21" width="9.52" height="9.52"/><rect class="cls-1" x="162.4" y="243.69" width="9.53" height="9.52"/><rect class="cls-1" x="162.4" y="234.16" width="9.53" height="9.53"/><rect class="cls-1" x="162.4" y="224.64" width="9.53" height="9.52"/><rect class="cls-1" x="162.4" y="215.11" width="9.53" height="9.53"/><rect class="cls-1" x="162.4" y="205.59" width="9.53" height="9.52"/><rect class="cls-1" x="162.4" y="196.07" width="9.53" height="9.52"/><rect class="cls-1" x="162.4" y="186.54" width="9.53" height="9.53"/><rect class="cls-1" x="162.4" y="177.02" width="9.53" height="9.52"/><rect class="cls-1" x="162.4" y="167.5" width="9.53" height="9.52"/><rect class="cls-1" x="162.4" y="157.97" width="9.53" height="9.53"/><rect class="cls-1" x="162.4" y="148.45" width="9.53" height="9.52"/><rect class="cls-5" x="162.4" y="138.92" width="9.53" height="9.53"/><rect class="cls-5" x="162.4" y="129.4" width="9.53" height="9.52"/><rect class="cls-5" x="162.4" y="119.88" width="9.53" height="9.52"/><rect class="cls-5" x="162.4" y="110.35" width="9.53" height="9.53"/><rect class="cls-5" x="162.4" y="100.83" width="9.53" height="9.52"/><rect class="cls-5" x="162.4" y="91.31" width="9.53" height="9.52"/><rect class="cls-5" x="162.4" y="81.78" width="9.53" height="9.53"/><rect class="cls-5" x="162.4" y="72.26" width="9.53" height="9.52"/><rect class="cls-5" x="162.4" y="62.73" width="9.53" height="9.53"/><rect class="cls-5" x="162.4" y="53.21" width="9.53" height="9.52"/><rect class="cls-1" x="152.88" y="243.69" width="9.52" height="9.52"/><rect class="cls-1" x="152.88" y="234.16" width="9.52" height="9.53"/><rect class="cls-1" x="152.88" y="224.64" width="9.52" height="9.52"/><rect class="cls-1" x="152.88" y="215.11" width="9.52" height="9.53"/><rect class="cls-1" x="152.88" y="205.59" width="9.52" height="9.52"/><rect class="cls-1" x="152.88" y="196.07" width="9.52" height="9.52"/><rect class="cls-1" x="152.88" y="186.54" width="9.52" height="9.53"/><rect class="cls-1" x="152.88" y="177.02" width="9.52" height="9.52"/><rect class="cls-1" x="152.88" y="167.5" width="9.52" height="9.52"/><rect class="cls-6" x="152.88" y="157.97" width="9.52" height="9.53"/><rect class="cls-6" x="152.88" y="148.45" width="9.52" height="9.52"/><rect class="cls-6" x="152.88" y="138.92" width="9.52" height="9.53"/><rect class="cls-6" x="152.88" y="129.4" width="9.52" height="9.52"/><rect class="cls-6" x="152.88" y="119.88" width="9.52" height="9.52"/><rect class="cls-6" x="152.88" y="110.35" width="9.52" height="9.53"/><rect class="cls-6" x="152.88" y="100.83" width="9.52" height="9.52"/><rect class="cls-6" x="152.88" y="91.31" width="9.52" height="9.52"/><rect class="cls-6" x="152.88" y="81.78" width="9.52" height="9.53"/><rect class="cls-6" x="152.88" y="72.26" width="9.52" height="9.52"/><rect class="cls-6" x="152.88" y="62.73" width="9.52" height="9.53"/><rect class="cls-6" x="152.88" y="53.21" width="9.52" height="9.52"/><rect class="cls-1" x="143.36" y="243.69" width="9.52" height="9.52"/><rect class="cls-1" x="143.36" y="234.16" width="9.52" height="9.53"/><rect class="cls-1" x="143.36" y="224.64" width="9.52" height="9.52"/><rect class="cls-1" x="143.36" y="215.11" width="9.52" height="9.53"/><rect class="cls-1" x="143.36" y="205.59" width="9.52" height="9.52"/><rect class="cls-1" x="143.36" y="196.07" width="9.52" height="9.52"/><rect class="cls-1" x="143.36" y="186.54" width="9.52" height="9.53"/><rect class="cls-1" x="143.36" y="177.02" width="9.52" height="9.52"/><rect class="cls-1" x="143.36" y="167.5" width="9.52" height="9.52"/><rect class="cls-1" x="143.36" y="157.97" width="9.52" height="9.53"/><rect class="cls-1" x="143.36" y="148.45" width="9.52" height="9.52"/><rect class="cls-1" x="143.36" y="138.92" width="9.52" height="9.53"/><rect class="cls-7" x="143.36" y="129.4" width="9.52" height="9.52"/><rect class="cls-7" x="143.36" y="119.88" width="9.52" height="9.52"/><rect class="cls-7" x="143.36" y="110.35" width="9.52" height="9.53"/><rect class="cls-7" x="143.36" y="100.83" width="9.52" height="9.52"/><rect class="cls-7" x="143.36" y="91.31" width="9.52" height="9.52"/><rect class="cls-7" x="143.36" y="81.78" width="9.52" height="9.53"/><rect class="cls-7" x="143.36" y="72.26" width="9.52" height="9.52"/><rect class="cls-7" x="143.36" y="62.73" width="9.52" height="9.53"/><rect class="cls-7" x="143.36" y="53.21" width="9.52" height="9.52"/><rect class="cls-1" x="133.83" y="243.69" width="9.53" height="9.52"/><rect class="cls-1" x="133.83" y="234.16" width="9.53" height="9.53"/><rect class="cls-1" x="133.83" y="224.64" width="9.53" height="9.52"/><rect class="cls-1" x="133.83" y="215.11" width="9.53" height="9.53"/><rect class="cls-1" x="133.83" y="205.59" width="9.53" height="9.52"/><rect class="cls-1" x="133.83" y="196.07" width="9.53" height="9.52"/><rect class="cls-8" x="133.83" y="186.54" width="9.53" height="9.53"/><rect class="cls-8" x="133.83" y="177.02" width="9.53" height="9.52"/><rect class="cls-8" x="133.83" y="167.5" width="9.53" height="9.52"/><rect class="cls-8" x="133.83" y="157.97" width="9.53" height="9.53"/><rect class="cls-8" x="133.83" y="148.45" width="9.53" height="9.52"/><rect class="cls-8" x="133.83" y="138.92" width="9.53" height="9.53"/><rect class="cls-8" x="133.83" y="129.4" width="9.53" height="9.52"/><rect class="cls-8" x="133.83" y="119.88" width="9.53" height="9.52"/><rect class="cls-8" x="133.83" y="110.35" width="9.53" height="9.53"/><rect class="cls-8" x="133.83" y="100.83" width="9.53" height="9.52"/><rect class="cls-8" x="133.83" y="91.31" width="9.53" height="9.52"/><rect class="cls-8" x="133.83" y="81.78" width="9.53" height="9.53"/><rect class="cls-8" x="133.83" y="72.26" width="9.53" height="9.52"/><rect class="cls-8" x="133.83" y="62.73" width="9.53" height="9.53"/><rect class="cls-8" x="133.83" y="53.21" width="9.53" height="9.52"/><rect class="cls-1" x="124.31" y="243.69" width="9.52" height="9.52"/><rect class="cls-1" x="124.31" y="234.16" width="9.52" height="9.53"/><rect class="cls-1" x="124.31" y="224.64" width="9.52" height="9.52"/><rect class="cls-1" x="124.31" y="215.11" width="9.52" height="9.53"/><rect class="cls-1" x="124.31" y="205.59" width="9.52" height="9.52"/><rect class="cls-1" x="124.31" y="196.07" width="9.52" height="9.52"/><rect class="cls-1" x="124.31" y="186.54" width="9.52" height="9.53"/><rect class="cls-1" x="124.31" y="177.02" width="9.52" height="9.52"/><rect class="cls-1" x="124.31" y="167.5" width="9.52" height="9.52"/><rect class="cls-1" x="124.31" y="157.97" width="9.52" height="9.53"/><rect class="cls-1" x="124.31" y="148.45" width="9.52" height="9.52"/><rect class="cls-9" x="124.31" y="138.92" width="9.52" height="9.53"/><rect class="cls-9" x="124.31" y="129.4" width="9.52" height="9.52"/><rect class="cls-9" x="124.31" y="119.88" width="9.52" height="9.52"/><rect class="cls-9" x="124.31" y="110.35" width="9.52" height="9.53"/><rect class="cls-9" x="124.31" y="100.83" width="9.52" height="9.52"/><rect class="cls-9" x="124.31" y="91.31" width="9.52" height="9.52"/><rect class="cls-9" x="124.31" y="81.78" width="9.52" height="9.53"/><rect class="cls-9" x="124.31" y="72.26" width="9.52" height="9.52"/><rect class="cls-9" x="124.31" y="62.73" width="9.52" height="9.53"/><rect class="cls-9" x="124.31" y="53.21" width="9.52" height="9.52"/><rect class="cls-1" x="114.79" y="243.69" width="9.52" height="9.52"/><rect class="cls-1" x="114.79" y="234.16" width="9.52" height="9.53"/><rect class="cls-1" x="114.79" y="224.64" width="9.52" height="9.52"/><rect class="cls-1" x="114.79" y="215.11" width="9.52" height="9.53"/><rect class="cls-1" x="114.79" y="205.59" width="9.52" height="9.52"/><rect class="cls-1" x="114.79" y="196.07" width="9.52" height="9.52"/><rect class="cls-1" x="114.79" y="186.54" width="9.52" height="9.53"/><rect class="cls-10" x="114.79" y="177.02" width="9.52" height="9.52"/><rect class="cls-10" x="114.79" y="167.5" width="9.52" height="9.52"/><rect class="cls-10" x="114.79" y="157.97" width="9.52" height="9.53"/><rect class="cls-10" x="114.79" y="148.45" width="9.52" height="9.52"/><rect class="cls-10" x="114.79" y="138.92" width="9.52" height="9.53"/><rect class="cls-10" x="114.79" y="129.4" width="9.52" height="9.52"/><rect class="cls-10" x="114.79" y="119.88" width="9.52" height="9.52"/><rect class="cls-10" x="114.79" y="110.35" width="9.52" height="9.53"/><rect class="cls-10" x="114.79" y="100.83" width="9.52" height="9.52"/><rect class="cls-10" x="114.79" y="91.31" width="9.52" height="9.52"/><rect class="cls-10" x="114.79" y="81.78" width="9.52" height="9.53"/><rect class="cls-10" x="114.79" y="72.26" width="9.52" height="9.52"/><rect class="cls-10" x="114.79" y="62.73" width="9.52" height="9.53"/><rect class="cls-10" x="114.79" y="53.21" width="9.52" height="9.52"/><rect class="cls-1" x="105.26" y="243.69" width="9.53" height="9.52"/><rect class="cls-1" x="105.26" y="234.16" width="9.53" height="9.53"/><rect class="cls-1" x="105.26" y="224.64" width="9.53" height="9.52"/><rect class="cls-1" x="105.26" y="215.11" width="9.53" height="9.53"/><rect class="cls-1" x="105.26" y="205.59" width="9.53" height="9.52"/><rect class="cls-1" x="105.26" y="196.07" width="9.53" height="9.52"/><rect class="cls-1" x="105.26" y="186.54" width="9.53" height="9.53"/><rect class="cls-1" x="105.26" y="177.02" width="9.53" height="9.52"/><rect class="cls-1" x="105.26" y="167.5" width="9.53" height="9.52"/><rect class="cls-1" x="105.26" y="157.97" width="9.53" height="9.53"/><rect class="cls-11" x="105.26" y="148.45" width="9.53" height="9.52"/><rect class="cls-11" x="105.26" y="138.92" width="9.53" height="9.53"/><rect class="cls-11" x="105.26" y="129.4" width="9.53" height="9.52"/><rect class="cls-11" x="105.26" y="119.88" width="9.53" height="9.52"/><rect class="cls-11" x="105.26" y="110.35" width="9.53" height="9.53"/><rect class="cls-11" x="105.26" y="100.83" width="9.53" height="9.52"/><rect class="cls-11" x="105.26" y="91.31" width="9.53" height="9.52"/><rect class="cls-11" x="105.26" y="81.78" width="9.53" height="9.53"/><rect class="cls-11" x="105.26" y="72.26" width="9.53" height="9.52"/><rect class="cls-11" x="105.26" y="62.73" width="9.53" height="9.53"/><rect class="cls-11" x="105.26" y="53.21" width="9.53" height="9.52"/><rect class="cls-1" x="95.74" y="243.69" width="9.52" height="9.52"/><rect class="cls-1" x="95.74" y="234.16" width="9.52" height="9.53"/><rect class="cls-1" x="95.74" y="224.64" width="9.52" height="9.52"/><rect class="cls-1" x="95.74" y="215.11" width="9.52" height="9.53"/><rect class="cls-1" x="95.74" y="205.59" width="9.52" height="9.52"/><rect class="cls-1" x="95.74" y="196.07" width="9.52" height="9.52"/><rect class="cls-1" x="95.74" y="186.54" width="9.52" height="9.53"/><rect class="cls-1" x="95.74" y="177.02" width="9.52" height="9.52"/><rect class="cls-12" x="95.74" y="167.5" width="9.52" height="9.52"/><rect class="cls-12" x="95.74" y="157.97" width="9.52" height="9.53"/><rect class="cls-12" x="95.74" y="148.45" width="9.52" height="9.52"/><rect class="cls-12" x="95.74" y="138.92" width="9.52" height="9.53"/><rect class="cls-12" x="95.74" y="129.4" width="9.52" height="9.52"/><rect class="cls-12" x="95.74" y="119.88" width="9.52" height="9.52"/><rect class="cls-12" x="95.74" y="110.35" width="9.52" height="9.53"/><rect class="cls-12" x="95.74" y="100.83" width="9.52" height="9.52"/><rect class="cls-12" x="95.74" y="91.31" width="9.52" height="9.52"/><rect class="cls-12" x="95.74" y="81.78" width="9.52" height="9.53"/><rect class="cls-12" x="95.74" y="72.26" width="9.52" height="9.52"/><rect class="cls-12" x="95.74" y="62.73" width="9.52" height="9.53"/><rect class="cls-12" x="95.74" y="53.21" width="9.52" height="9.52"/><rect class="cls-1" x="86.21" y="243.69" width="9.53" height="9.52"/><rect class="cls-1" x="86.21" y="234.16" width="9.53" height="9.53"/><rect class="cls-1" x="86.21" y="224.64" width="9.53" height="9.52"/><rect class="cls-1" x="86.21" y="215.11" width="9.53" height="9.53"/><rect class="cls-1" x="86.21" y="205.59" width="9.53" height="9.52"/><rect class="cls-1" x="86.21" y="196.07" width="9.53" height="9.52"/><rect class="cls-1" x="86.21" y="186.54" width="9.53" height="9.53"/><rect class="cls-1" x="86.21" y="177.02" width="9.53" height="9.52"/><rect class="cls-1" x="86.21" y="167.5" width="9.53" height="9.52"/><rect class="cls-1" x="86.21" y="157.97" width="9.53" height="9.53"/><rect class="cls-1" x="86.21" y="148.45" width="9.53" height="9.52"/><rect class="cls-1" x="86.21" y="138.92" width="9.53" height="9.53"/><rect class="cls-1" x="86.21" y="129.4" width="9.53" height="9.52"/><rect class="cls-13" x="86.21" y="119.88" width="9.53" height="9.52"/><rect class="cls-13" x="86.21" y="110.35" width="9.53" height="9.53"/><rect class="cls-13" x="86.21" y="100.83" width="9.53" height="9.52"/><rect class="cls-13" x="86.21" y="91.31" width="9.53" height="9.52"/><rect class="cls-13" x="86.21" y="81.78" width="9.53" height="9.53"/><rect class="cls-13" x="86.21" y="72.26" width="9.53" height="9.52"/><rect class="cls-13" x="86.21" y="62.73" width="9.53" height="9.53"/><rect class="cls-13" x="86.21" y="53.21" width="9.53" height="9.52"/><rect class="cls-1" x="76.69" y="243.69" width="9.52" height="9.52"/><rect class="cls-1" x="76.69" y="234.16" width="9.52" height="9.53"/><rect class="cls-1" x="76.69" y="224.64" width="9.52" height="9.52"/><rect class="cls-1" x="76.69" y="215.11" width="9.52" height="9.53"/><rect class="cls-1" x="76.69" y="205.59" width="9.52" height="9.52"/><rect class="cls-1" x="76.69" y="196.07" width="9.52" height="9.52"/><rect class="cls-1" x="76.69" y="186.54" width="9.52" height="9.53"/><rect class="cls-1" x="76.69" y="177.02" width="9.52" height="9.52"/><rect class="cls-14" x="76.69" y="167.5" width="9.52" height="9.52"/><rect class="cls-14" x="76.69" y="157.97" width="9.52" height="9.53"/><rect class="cls-14" x="76.69" y="148.45" width="9.52" height="9.52"/><rect class="cls-14" x="76.69" y="138.92" width="9.52" height="9.53"/><rect class="cls-14" x="76.69" y="129.4" width="9.52" height="9.52"/><rect class="cls-14" x="76.69" y="119.88" width="9.52" height="9.52"/><rect class="cls-14" x="76.69" y="110.35" width="9.52" height="9.53"/><rect class="cls-14" x="76.69" y="100.83" width="9.52" height="9.52"/><rect class="cls-14" x="76.69" y="91.31" width="9.52" height="9.52"/><rect class="cls-14" x="76.69" y="81.78" width="9.52" height="9.53"/><rect class="cls-14" x="76.69" y="72.26" width="9.52" height="9.52"/><rect class="cls-14" x="76.69" y="62.73" width="9.52" height="9.53"/><rect class="cls-14" x="76.69" y="53.21" width="9.52" height="9.52"/><rect class="cls-1" x="67.17" y="243.69" width="9.52" height="9.52"/><rect class="cls-1" x="67.17" y="234.16" width="9.52" height="9.53"/><rect class="cls-1" x="67.17" y="224.64" width="9.52" height="9.52"/><rect class="cls-1" x="67.17" y="215.11" width="9.52" height="9.53"/><rect class="cls-1" x="67.17" y="205.59" width="9.52" height="9.52"/><rect class="cls-1" x="67.17" y="196.07" width="9.52" height="9.52"/><rect class="cls-15" x="67.17" y="186.54" width="9.52" height="9.53"/><rect class="cls-15" x="67.17" y="177.02" width="9.52" height="9.52"/><rect class="cls-15" x="67.17" y="167.5" width="9.52" height="9.52"/><rect class="cls-15" x="67.17" y="157.97" width="9.52" height="9.53"/><rect class="cls-15" x="67.17" y="148.45" width="9.52" height="9.52"/><rect class="cls-15" x="67.17" y="138.92" width="9.52" height="9.53"/><rect class="cls-15" x="67.17" y="129.4" width="9.52" height="9.52"/><rect class="cls-15" x="67.17" y="119.88" width="9.52" height="9.52"/><rect class="cls-15" x="67.17" y="110.35" width="9.52" height="9.53"/><rect class="cls-15" x="67.17" y="100.83" width="9.52" height="9.52"/><rect class="cls-15" x="67.17" y="91.31" width="9.52" height="9.52"/><rect class="cls-15" x="67.17" y="81.78" width="9.52" height="9.53"/><rect class="cls-15" x="67.17" y="72.26" width="9.52" height="9.52"/><rect class="cls-15" x="67.17" y="62.73" width="9.52" height="9.53"/><rect class="cls-15" x="67.17" y="53.21" width="9.52" height="9.52"/><rect class="cls-1" x="57.64" y="243.69" width="9.53" height="9.52"/><rect class="cls-1" x="57.64" y="234.16" width="9.53" height="9.53"/><rect class="cls-16" x="57.64" y="224.64" width="9.53" height="9.52"/><rect class="cls-16" x="57.64" y="215.11" width="9.53" height="9.53"/><rect class="cls-16" x="57.64" y="205.59" width="9.53" height="9.52"/><rect class="cls-16" x="57.64" y="196.07" width="9.53" height="9.52"/><rect class="cls-16" x="57.64" y="186.54" width="9.53" height="9.53"/><rect class="cls-16" x="57.64" y="177.02" width="9.53" height="9.52"/><rect class="cls-16" x="57.64" y="167.5" width="9.53" height="9.52"/><rect class="cls-16" x="57.64" y="157.97" width="9.53" height="9.53"/><rect class="cls-16" x="57.64" y="148.45" width="9.53" height="9.52"/><rect class="cls-16" x="57.64" y="138.92" width="9.53" height="9.53"/><rect class="cls-16" x="57.64" y="129.4" width="9.53" height="9.52"/><rect class="cls-16" x="57.64" y="119.88" width="9.53" height="9.52"/><rect class="cls-16" x="57.64" y="110.35" width="9.53" height="9.53"/><rect class="cls-16" x="57.64" y="100.83" width="9.53" height="9.52"/><rect class="cls-16" x="57.64" y="91.31" width="9.53" height="9.52"/><rect class="cls-16" x="57.64" y="81.78" width="9.53" height="9.53"/><rect class="cls-16" x="57.64" y="72.26" width="9.53" height="9.52"/><rect class="cls-16" x="57.64" y="62.73" width="9.53" height="9.53"/><rect class="cls-16" x="57.64" y="53.21" width="9.53" height="9.52"/><rect class="cls-1" x="48.12" y="243.69" width="9.52" height="9.52"/><rect class="cls-1" x="48.12" y="234.16" width="9.52" height="9.53"/><rect class="cls-1" x="48.12" y="224.64" width="9.52" height="9.52"/><rect class="cls-1" x="48.12" y="215.11" width="9.52" height="9.53"/><rect class="cls-1" x="48.12" y="205.59" width="9.52" height="9.52"/><rect class="cls-1" x="48.12" y="196.07" width="9.52" height="9.52"/><rect class="cls-1" x="48.12" y="186.54" width="9.52" height="9.53"/><rect class="cls-1" x="48.12" y="177.02" width="9.52" height="9.52"/><rect class="cls-1" x="48.12" y="167.5" width="9.52" height="9.52"/><rect class="cls-1" x="48.12" y="157.97" width="9.52" height="9.53"/><rect class="cls-17" x="48.12" y="148.45" width="9.52" height="9.52"/><rect class="cls-17" x="48.12" y="138.92" width="9.52" height="9.53"/><rect class="cls-17" x="48.12" y="129.4" width="9.52" height="9.52"/><rect class="cls-17" x="48.12" y="119.88" width="9.52" height="9.52"/><rect class="cls-17" x="48.12" y="110.35" width="9.52" height="9.53"/><rect class="cls-17" x="48.12" y="100.83" width="9.52" height="9.52"/><rect class="cls-17" x="48.12" y="91.31" width="9.52" height="9.52"/><rect class="cls-17" x="48.12" y="81.78" width="9.52" height="9.53"/><rect class="cls-17" x="48.12" y="72.26" width="9.52" height="9.52"/><rect class="cls-17" x="48.12" y="62.73" width="9.52" height="9.53"/><rect class="cls-17" x="48.12" y="53.21" width="9.52" height="9.52"/><rect class="cls-1" x="38.6" y="243.69" width="9.52" height="9.52"/><rect class="cls-1" x="38.6" y="234.16" width="9.52" height="9.53"/><rect class="cls-1" x="38.6" y="224.64" width="9.52" height="9.52"/><rect class="cls-1" x="38.6" y="215.11" width="9.52" height="9.53"/><rect class="cls-1" x="38.6" y="205.59" width="9.52" height="9.52"/><rect class="cls-1" x="38.6" y="196.07" width="9.52" height="9.52"/><rect class="cls-1" x="38.6" y="186.54" width="9.52" height="9.53"/><rect class="cls-1" x="38.6" y="177.02" width="9.52" height="9.52"/><rect class="cls-1" x="38.6" y="167.5" width="9.52" height="9.52"/><rect class="cls-1" x="38.6" y="157.97" width="9.52" height="9.53"/><rect class="cls-1" x="38.6" y="148.45" width="9.52" height="9.52"/><rect class="cls-1" x="38.6" y="138.92" width="9.52" height="9.53"/><rect class="cls-1" x="38.6" y="129.4" width="9.52" height="9.52"/><rect class="cls-18" x="38.6" y="119.88" width="9.52" height="9.52"/><rect class="cls-18" x="38.6" y="110.35" width="9.52" height="9.53"/><rect class="cls-18" x="38.6" y="100.83" width="9.52" height="9.52"/><rect class="cls-18" x="38.6" y="91.31" width="9.52" height="9.52"/><rect class="cls-18" x="38.6" y="81.78" width="9.52" height="9.53"/><rect class="cls-18" x="38.6" y="72.26" width="9.52" height="9.52"/><rect class="cls-18" x="38.6" y="62.73" width="9.52" height="9.53"/><rect class="cls-18" x="38.6" y="53.21" width="9.52" height="9.52"/><rect class="cls-1" x="29.07" y="243.69" width="9.53" height="9.52"/><rect class="cls-1" x="29.07" y="234.16" width="9.53" height="9.53"/><rect class="cls-1" x="29.07" y="224.64" width="9.53" height="9.52"/><rect class="cls-1" x="29.07" y="215.11" width="9.53" height="9.53"/><rect class="cls-1" x="29.07" y="205.59" width="9.53" height="9.52"/><rect class="cls-1" x="29.07" y="196.07" width="9.53" height="9.52"/><rect class="cls-19" x="29.07" y="186.54" width="9.53" height="9.53"/><rect class="cls-19" x="29.07" y="177.02" width="9.53" height="9.52"/><rect class="cls-19" x="29.07" y="167.5" width="9.53" height="9.52"/><rect class="cls-19" x="29.07" y="157.97" width="9.53" height="9.53"/><rect class="cls-19" x="29.07" y="148.45" width="9.53" height="9.52"/><rect class="cls-19" x="29.07" y="138.92" width="9.53" height="9.53"/><rect class="cls-19" x="29.07" y="129.4" width="9.53" height="9.52"/><rect class="cls-19" x="29.07" y="119.88" width="9.53" height="9.52"/><rect class="cls-19" x="29.07" y="110.35" width="9.53" height="9.53"/><rect class="cls-19" x="29.07" y="100.83" width="9.53" height="9.52"/><rect class="cls-19" x="29.07" y="91.31" width="9.53" height="9.52"/><rect class="cls-19" x="29.07" y="81.78" width="9.53" height="9.53"/><rect class="cls-19" x="29.07" y="72.26" width="9.53" height="9.52"/><rect class="cls-19" x="29.07" y="62.73" width="9.53" height="9.53"/><rect class="cls-19" x="29.07" y="53.21" width="9.53" height="9.52"/><rect class="cls-1" x="19.55" y="243.69" width="9.52" height="9.52"/><rect class="cls-1" x="19.55" y="234.16" width="9.52" height="9.53"/><rect class="cls-1" x="19.55" y="224.64" width="9.52" height="9.52"/><rect class="cls-1" x="19.55" y="215.11" width="9.52" height="9.53"/><rect class="cls-1" x="19.55" y="205.59" width="9.52" height="9.52"/><rect class="cls-1" x="19.55" y="196.07" width="9.52" height="9.52"/><rect class="cls-1" x="19.55" y="186.54" width="9.52" height="9.53"/><rect class="cls-1" x="19.55" y="177.02" width="9.52" height="9.52"/><rect class="cls-20" x="19.55" y="167.5" width="9.52" height="9.52"/><rect class="cls-20" x="19.55" y="157.97" width="9.52" height="9.53"/><rect class="cls-20" x="19.55" y="148.45" width="9.52" height="9.52"/><rect class="cls-20" x="19.55" y="138.92" width="9.52" height="9.53"/><rect class="cls-20" x="19.55" y="129.4" width="9.52" height="9.52"/><rect class="cls-20" x="19.55" y="119.88" width="9.52" height="9.52"/><rect class="cls-20" x="19.55" y="110.35" width="9.52" height="9.53"/><rect class="cls-20" x="19.55" y="100.83" width="9.52" height="9.52"/><rect class="cls-20" x="19.55" y="91.31" width="9.52" height="9.52"/><rect class="cls-20" x="19.55" y="81.78" width="9.52" height="9.53"/><rect class="cls-20" x="19.55" y="72.26" width="9.52" height="9.52"/><rect class="cls-20" x="19.55" y="62.73" width="9.52" height="9.53"/><rect class="cls-20" x="19.55" y="53.21" width="9.52" height="9.52"/><rect class="cls-1" x="10.02" y="243.69" width="9.53" height="9.52"/><rect class="cls-1" x="10.02" y="234.16" width="9.53" height="9.53"/><rect class="cls-1" x="10.02" y="224.64" width="9.53" height="9.52"/><rect class="cls-1" x="10.02" y="215.11" width="9.53" height="9.53"/><rect class="cls-1" x="10.02" y="205.59" width="9.53" height="9.52"/><rect class="cls-1" x="10.02" y="196.07" width="9.53" height="9.52"/><rect class="cls-1" x="10.02" y="186.54" width="9.53" height="9.53"/><rect class="cls-21" x="10.02" y="177.02" width="9.53" height="9.52"/><rect class="cls-21" x="10.02" y="167.5" width="9.53" height="9.52"/><rect class="cls-21" x="10.02" y="157.97" width="9.53" height="9.53"/><rect class="cls-21" x="10.02" y="148.45" width="9.53" height="9.52"/><rect class="cls-21" x="10.02" y="138.92" width="9.53" height="9.53"/><rect class="cls-21" x="10.02" y="129.4" width="9.53" height="9.52"/><rect class="cls-21" x="10.02" y="119.88" width="9.53" height="9.52"/><rect class="cls-21" x="10.02" y="110.35" width="9.53" height="9.53"/><rect class="cls-21" x="10.02" y="100.83" width="9.53" height="9.52"/><rect class="cls-21" x="10.02" y="91.31" width="9.53" height="9.52"/><rect class="cls-21" x="10.02" y="81.78" width="9.53" height="9.53"/><rect class="cls-21" x="10.02" y="72.26" width="9.53" height="9.52"/><rect class="cls-21" x="10.02" y="62.73" width="9.53" height="9.53"/><rect class="cls-21" x="10.02" y="53.21" width="9.53" height="9.52"/><rect class="cls-1" x="0.5" y="243.69" width="9.52" height="9.52"/><rect class="cls-1" x="0.5" y="234.16" width="9.52" height="9.53"/><rect class="cls-1" x="0.5" y="224.64" width="9.52" height="9.52"/><rect class="cls-1" x="0.5" y="215.11" width="9.52" height="9.53"/><rect class="cls-22" x="0.5" y="205.59" width="9.52" height="9.52"/><rect class="cls-22" x="0.5" y="196.07" width="9.52" height="9.52"/><rect class="cls-22" x="0.5" y="186.54" width="9.52" height="9.53"/><rect class="cls-22" x="0.5" y="177.02" width="9.52" height="9.52"/><rect class="cls-22" x="0.5" y="167.5" width="9.52" height="9.52"/><rect class="cls-22" x="0.5" y="157.97" width="9.52" height="9.53"/><rect class="cls-22" x="0.5" y="148.45" width="9.52" height="9.52"/><rect class="cls-22" x="0.5" y="138.92" width="9.52" height="9.53"/><rect class="cls-22" x="0.5" y="129.4" width="9.52" height="9.52"/><rect class="cls-22" x="0.5" y="119.88" width="9.52" height="9.52"/><rect class="cls-22" x="0.5" y="110.35" width="9.52" height="9.53"/><rect class="cls-22" x="0.5" y="100.83" width="9.52" height="9.52"/><rect class="cls-22" x="0.5" y="91.31" width="9.52" height="9.52"/><rect class="cls-22" x="0.5" y="81.78" width="9.52" height="9.53"/><rect class="cls-22" x="0.5" y="72.26" width="9.52" height="9.52"/><rect class="cls-22" x="0.5" y="62.73" width="9.52" height="9.53"/><rect class="cls-22" x="0.5" y="53.21" width="9.52" height="9.52"/><polygon class="cls-23" points="0.5 62.73 0.5 53.21 10.02 53.21 19.55 53.21 29.07 53.21 38.6 53.21 48.12 53.21 57.64 53.21 67.17 53.21 76.69 53.21 86.21 53.21 95.74 53.21 105.26 53.21 114.79 53.21 124.31 53.21 133.83 53.21 143.36 53.21 152.88 53.21 162.4 53.21 171.93 53.21 181.45 53.21 190.98 53.21 200.5 53.21 200.5 62.73 200.5 72.26 200.5 81.78 200.5 91.31 200.5 100.83 200.5 110.35 200.5 119.88 200.5 129.4 200.5 138.92 200.5 148.45 200.5 157.97 200.5 167.5 200.5 177.02 200.5 186.54 200.5 196.07 200.5 205.59 200.5 215.11 200.5 224.64 200.5 234.16 200.5 243.69 200.5 253.21 190.98 253.21 181.45 253.21 171.93 253.21 162.4 253.21 152.88 253.21 143.36 253.21 133.83 253.21 124.31 253.21 114.79 253.21 105.26 253.21 95.74 253.21 86.21 253.21 76.69 253.21 67.17 253.21 57.64 253.21 48.12 253.21 38.6 253.21 29.07 253.21 19.55 253.21 10.02 253.21 0.5 253.21 0.5 243.69 0.5 234.16 0.5 224.64 0.5 215.11 0.5 205.59 0.5 196.07 0.5 186.54 0.5 177.02 0.5 167.5 0.5 157.97 0.5 148.45 0.5 138.92 0.5 129.4 0.5 119.88 0.5 110.35 0.5 100.83 0.5 91.31 0.5 81.78 0.5 72.26 0.5 62.73"/><polyline class="cls-23" points="0.5 243.69 10.02 243.69 19.55 243.69 29.07 243.69 38.6 243.69 48.12 243.69 57.64 243.69 67.17 243.69 76.69 243.69 86.21 243.69 95.74 243.69 105.26 243.69 114.79 243.69 124.31 243.69 133.83 243.69 143.36 243.69 152.88 243.69 162.4 243.69 171.93 243.69 181.45 243.69 190.98 243.69 200.5 243.69"/><polyline class="cls-23" points="0.5 234.16 10.02 234.16 19.55 234.16 29.07 234.16 38.6 234.16 48.12 234.16 57.64 234.16 67.17 234.16 76.69 234.16 86.21 234.16 95.74 234.16 105.26 234.16 114.79 234.16 124.31 234.16 133.83 234.16 143.36 234.16 152.88 234.16 162.4 234.16 171.93 234.16 181.45 234.16 190.98 234.16 200.5 234.16"/><polyline class="cls-23" points="0.5 224.64 10.02 224.64 19.55 224.64 29.07 224.64 38.6 224.64 48.12 224.64 57.64 224.64 67.17 224.64 76.69 224.64 86.21 224.64 95.74 224.64 105.26 224.64 114.79 224.64 124.31 224.64 133.83 224.64 143.36 224.64 152.88 224.64 162.4 224.64 171.93 224.64 181.45 224.64 190.98 224.64 200.5 224.64"/><polyline class="cls-23" points="0.5 215.11 10.02 215.11 19.55 215.11 29.07 215.11 38.6 215.11 48.12 215.11 57.64 215.11 67.17 215.11 76.69 215.11 86.21 215.11 95.74 215.11 105.26 215.11 114.79 215.11 124.31 215.11 133.83 215.11 143.36 215.11 152.88 215.11 162.4 215.11 171.93 215.11 181.45 215.11 190.98 215.11 200.5 215.11"/><polyline class="cls-23" points="0.5 205.59 10.02 205.59 19.55 205.59 29.07 205.59 38.6 205.59 48.12 205.59 57.64 205.59 67.17 205.59 76.69 205.59 86.21 205.59 95.74 205.59 105.26 205.59 114.79 205.59 124.31 205.59 133.83 205.59 143.36 205.59 152.88 205.59 162.4 205.59 171.93 205.59 181.45 205.59 190.98 205.59 200.5 205.59"/><polyline class="cls-23" points="0.5 196.07 10.02 196.07 19.55 196.07 29.07 196.07 38.6 196.07 48.12 196.07 57.64 196.07 67.17 196.07 76.69 196.07 86.21 196.07 95.74 196.07 105.26 196.07 114.79 196.07 124.31 196.07 133.83 196.07 143.36 196.07 152.88 196.07 162.4 196.07 171.93 196.07 181.45 196.07 190.98 196.07 200.5 196.07"/><polyline class="cls-23" points="0.5 186.54 10.02 186.54 19.55 186.54 29.07 186.54 38.6 186.54 48.12 186.54 57.64 186.54 67.17 186.54 76.69 186.54 86.21 186.54 95.74 186.54 105.26 186.54 114.79 186.54 124.31 186.54 133.83 186.54 143.36 186.54 152.88 186.54 162.4 186.54 171.93 186.54 181.45 186.54 190.98 186.54 200.5 186.54"/><polyline class="cls-23" points="0.5 177.02 10.02 177.02 19.55 177.02 29.07 177.02 38.6 177.02 48.12 177.02 57.64 177.02 67.17 177.02 76.69 177.02 86.21 177.02 95.74 177.02 105.26 177.02 114.79 177.02 124.31 177.02 133.83 177.02 143.36 177.02 152.88 177.02 162.4 177.02 171.93 177.02 181.45 177.02 190.98 177.02 200.5 177.02"/><polyline class="cls-23" points="0.5 167.5 10.02 167.5 19.55 167.5 29.07 167.5 38.6 167.5 48.12 167.5 57.64 167.5 67.17 167.5 76.69 167.5 86.21 167.5 95.74 167.5 105.26 167.5 114.79 167.5 124.31 167.5 133.83 167.5 143.36 167.5 152.88 167.5 162.4 167.5 171.93 167.5 181.45 167.5 190.98 167.5 200.5 167.5"/><polyline class="cls-23" points="0.5 157.97 10.02 157.97 19.55 157.97 29.07 157.97 38.6 157.97 48.12 157.97 57.64 157.97 67.17 157.97 76.69 157.97 86.21 157.97 95.74 157.97 105.26 157.97 114.79 157.97 124.31 157.97 133.83 157.97 143.36 157.97 152.88 157.97 162.4 157.97 171.93 157.97 181.45 157.97 190.98 157.97 200.5 157.97"/><polyline class="cls-23" points="0.5 148.45 10.02 148.45 19.55 148.45 29.07 148.45 38.6 148.45 48.12 148.45 57.64 148.45 67.17 148.45 76.69 148.45 86.21 148.45 95.74 148.45 105.26 148.45 114.79 148.45 124.31 148.45 133.83 148.45 143.36 148.45 152.88 148.45 162.4 148.45 171.93 148.45 181.45 148.45 190.98 148.45 200.5 148.45"/><polyline class="cls-23" points="0.5 138.92 10.02 138.92 19.55 138.92 29.07 138.92 38.6 138.92 48.12 138.92 57.64 138.92 67.17 138.92 76.69 138.92 86.21 138.92 95.74 138.92 105.26 138.92 114.79 138.92 124.31 138.92 133.83 138.92 143.36 138.92 152.88 138.92 162.4 138.92 171.93 138.92 181.45 138.92 190.98 138.92 200.5 138.92"/><polyline class="cls-23" points="0.5 129.4 10.02 129.4 19.55 129.4 29.07 129.4 38.6 129.4 48.12 129.4 57.64 129.4 67.17 129.4 76.69 129.4 86.21 129.4 95.74 129.4 105.26 129.4 114.79 129.4 124.31 129.4 133.83 129.4 143.36 129.4 152.88 129.4 162.4 129.4 171.93 129.4 181.45 129.4 190.98 129.4 200.5 129.4"/><polyline class="cls-23" points="0.5 119.88 10.02 119.88 19.55 119.88 29.07 119.88 38.6 119.88 48.12 119.88 57.64 119.88 67.17 119.88 76.69 119.88 86.21 119.88 95.74 119.88 105.26 119.88 114.79 119.88 124.31 119.88 133.83 119.88 143.36 119.88 152.88 119.88 162.4 119.88 171.93 119.88 181.45 119.88 190.98 119.88 200.5 119.88"/><polyline class="cls-23" points="0.5 110.35 10.02 110.35 19.55 110.35 29.07 110.35 38.6 110.35 48.12 110.35 57.64 110.35 67.17 110.35 76.69 110.35 86.21 110.35 95.74 110.35 105.26 110.35 114.79 110.35 124.31 110.35 133.83 110.35 143.36 110.35 152.88 110.35 162.4 110.35 171.93 110.35 181.45 110.35 190.98 110.35 200.5 110.35"/><polyline class="cls-23" points="0.5 100.83 10.02 100.83 19.55 100.83 29.07 100.83 38.6 100.83 48.12 100.83 57.64 100.83 67.17 100.83 76.69 100.83 86.21 100.83 95.74 100.83 105.26 100.83 114.79 100.83 124.31 100.83 133.83 100.83 143.36 100.83 152.88 100.83 162.4 100.83 171.93 100.83 181.45 100.83 190.98 100.83 200.5 100.83"/><polyline class="cls-23" points="0.5 91.31 10.02 91.31 19.55 91.31 29.07 91.31 38.6 91.31 48.12 91.31 57.64 91.31 67.17 91.31 76.69 91.31 86.21 91.31 95.74 91.31 105.26 91.31 114.79 91.31 124.31 91.31 133.83 91.31 143.36 91.31 152.88 91.31 162.4 91.31 171.93 91.31 181.45 91.31 190.98 91.31 200.5 91.31"/><polyline class="cls-23" points="0.5 81.78 10.02 81.78 19.55 81.78 29.07 81.78 38.6 81.78 48.12 81.78 57.64 81.78 67.17 81.78 76.69 81.78 86.21 81.78 95.74 81.78 105.26 81.78 114.79 81.78 124.31 81.78 133.83 81.78 143.36 81.78 152.88 81.78 162.4 81.78 171.93 81.78 181.45 81.78 190.98 81.78 200.5 81.78"/><polyline class="cls-23" points="0.5 72.26 10.02 72.26 19.55 72.26 29.07 72.26 38.6 72.26 48.12 72.26 57.64 72.26 67.17 72.26 76.69 72.26 86.21 72.26 95.74 72.26 105.26 72.26 114.79 72.26 124.31 72.26 133.83 72.26 143.36 72.26 152.88 72.26 162.4 72.26 171.93 72.26 181.45 72.26 190.98 72.26 200.5 72.26"/><polyline class="cls-23" points="0.5 62.73 10.02 62.73 19.55 62.73 29.07 62.73 38.6 62.73 48.12 62.73 57.64 62.73 67.17 62.73 76.69 62.73 86.21 62.73 95.74 62.73 105.26 62.73 114.79 62.73 124.31 62.73 133.83 62.73 143.36 62.73 152.88 62.73 162.4 62.73 171.93 62.73 181.45 62.73 190.98 62.73 200.5 62.73"/><polyline class="cls-23" points="190.98 53.21 190.98 62.73 190.98 72.26 190.98 81.78 190.98 91.31 190.98 100.83 190.98 110.35 190.98 119.88 190.98 129.4 190.98 138.92 190.98 148.45 190.98 157.97 190.98 167.5 190.98 177.02 190.98 186.54 190.98 196.07 190.98 205.59 190.98 215.11 190.98 224.64 190.98 234.16 190.98 243.69 190.98 253.21"/><polyline class="cls-23" points="181.45 53.21 181.45 62.73 181.45 72.26 181.45 81.78 181.45 91.31 181.45 100.83 181.45 110.35 181.45 119.88 181.45 129.4 181.45 138.92 181.45 148.45 181.45 157.97 181.45 167.5 181.45 177.02 181.45 186.54 181.45 196.07 181.45 205.59 181.45 215.11 181.45 224.64 181.45 234.16 181.45 243.69 181.45 253.21"/><polyline class="cls-23" points="171.93 53.21 171.93 62.73 171.93 72.26 171.93 81.78 171.93 91.31 171.93 100.83 171.93 110.35 171.93 119.88 171.93 129.4 171.93 138.92 171.93 148.45 171.93 157.97 171.93 167.5 171.93 177.02 171.93 186.54 171.93 196.07 171.93 205.59 171.93 215.11 171.93 224.64 171.93 234.16 171.93 243.69 171.93 253.21"/><polyline class="cls-23" points="162.4 53.21 162.4 62.73 162.4 72.26 162.4 81.78 162.4 91.31 162.4 100.83 162.4 110.35 162.4 119.88 162.4 129.4 162.4 138.92 162.4 148.45 162.4 157.97 162.4 167.5 162.4 177.02 162.4 186.54 162.4 196.07 162.4 205.59 162.4 215.11 162.4 224.64 162.4 234.16 162.4 243.69 162.4 253.21"/><polyline class="cls-23" points="152.88 53.21 152.88 62.73 152.88 72.26 152.88 81.78 152.88 91.31 152.88 100.83 152.88 110.35 152.88 119.88 152.88 129.4 152.88 138.92 152.88 148.45 152.88 157.97 152.88 167.5 152.88 177.02 152.88 186.54 152.88 196.07 152.88 205.59 152.88 215.11 152.88 224.64 152.88 234.16 152.88 243.69 152.88 253.21"/><polyline class="cls-23" points="143.36 53.21 143.36 62.73 143.36 72.26 143.36 81.78 143.36 91.31 143.36 100.83 143.36 110.35 143.36 119.88 143.36 129.4 143.36 138.92 143.36 148.45 143.36 157.97 143.36 167.5 143.36 177.02 143.36 186.54 143.36 196.07 143.36 205.59 143.36 215.11 143.36 224.64 143.36 234.16 143.36 243.69 143.36 253.21"/><polyline class="cls-23" points="133.83 53.21 133.83 62.73 133.83 72.26 133.83 81.78 133.83 91.31 133.83 100.83 133.83 110.35 133.83 119.88 133.83 129.4 133.83 138.92 133.83 148.45 133.83 157.97 133.83 167.5 133.83 177.02 133.83 186.54 133.83 196.07 133.83 205.59 133.83 215.11 133.83 224.64 133.83 234.16 133.83 243.69 133.83 253.21"/><polyline class="cls-23" points="124.31 53.21 124.31 62.73 124.31 72.26 124.31 81.78 124.31 91.31 124.31 100.83 124.31 110.35 124.31 119.88 124.31 129.4 124.31 138.92 124.31 148.45 124.31 157.97 124.31 167.5 124.31 177.02 124.31 186.54 124.31 196.07 124.31 205.59 124.31 215.11 124.31 224.64 124.31 234.16 124.31 243.69 124.31 253.21"/><polyline class="cls-23" points="114.79 53.21 114.79 62.73 114.79 72.26 114.79 81.78 114.79 91.31 114.79 100.83 114.79 110.35 114.79 119.88 114.79 129.4 114.79 138.92 114.79 148.45 114.79 157.97 114.79 167.5 114.79 177.02 114.79 186.54 114.79 196.07 114.79 205.59 114.79 215.11 114.79 224.64 114.79 234.16 114.79 243.69 114.79 253.21"/><polyline class="cls-23" points="105.26 53.21 105.26 62.73 105.26 72.26 105.26 81.78 105.26 91.31 105.26 100.83 105.26 110.35 105.26 119.88 105.26 129.4 105.26 138.92 105.26 148.45 105.26 157.97 105.26 167.5 105.26 177.02 105.26 186.54 105.26 196.07 105.26 205.59 105.26 215.11 105.26 224.64 105.26 234.16 105.26 243.69 105.26 253.21"/><polyline class="cls-23" points="95.74 53.21 95.74 62.73 95.74 72.26 95.74 81.78 95.74 91.31 95.74 100.83 95.74 110.35 95.74 119.88 95.74 129.4 95.74 138.92 95.74 148.45 95.74 157.97 95.74 167.5 95.74 177.02 95.74 186.54 95.74 196.07 95.74 205.59 95.74 215.11 95.74 224.64 95.74 234.16 95.74 243.69 95.74 253.21"/><polyline class="cls-23" points="86.21 53.21 86.21 62.73 86.21 72.26 86.21 81.78 86.21 91.31 86.21 100.83 86.21 110.35 86.21 119.88 86.21 129.4 86.21 138.92 86.21 148.45 86.21 157.97 86.21 167.5 86.21 177.02 86.21 186.54 86.21 196.07 86.21 205.59 86.21 215.11 86.21 224.64 86.21 234.16 86.21 243.69 86.21 253.21"/><polyline class="cls-23" points="76.69 53.21 76.69 62.73 76.69 72.26 76.69 81.78 76.69 91.31 76.69 100.83 76.69 110.35 76.69 119.88 76.69 129.4 76.69 138.92 76.69 148.45 76.69 157.97 76.69 167.5 76.69 177.02 76.69 186.54 76.69 196.07 76.69 205.59 76.69 215.11 76.69 224.64 76.69 234.16 76.69 243.69 76.69 253.21"/><polyline class="cls-23" points="67.17 53.21 67.17 62.73 67.17 72.26 67.17 81.78 67.17 91.31 67.17 100.83 67.17 110.35 67.17 119.88 67.17 129.4 67.17 138.92 67.17 148.45 67.17 157.97 67.17 167.5 67.17 177.02 67.17 186.54 67.17 196.07 67.17 205.59 67.17 215.11 67.17 224.64 67.17 234.16 67.17 243.69 67.17 253.21"/><polyline class="cls-23" points="57.64 53.21 57.64 62.73 57.64 72.26 57.64 81.78 57.64 91.31 57.64 100.83 57.64 110.35 57.64 119.88 57.64 129.4 57.64 138.92 57.64 148.45 57.64 157.97 57.64 167.5 57.64 177.02 57.64 186.54 57.64 196.07 57.64 205.59 57.64 215.11 57.64 224.64 57.64 234.16 57.64 243.69 57.64 253.21"/><polyline class="cls-23" points="48.12 53.21 48.12 62.73 48.12 72.26 48.12 81.78 48.12 91.31 48.12 100.83 48.12 110.35 48.12 119.88 48.12 129.4 48.12 138.92 48.12 148.45 48.12 157.97 48.12 167.5 48.12 177.02 48.12 186.54 48.12 196.07 48.12 205.59 48.12 215.11 48.12 224.64 48.12 234.16 48.12 243.69 48.12 253.21"/><polyline class="cls-23" points="38.6 53.21 38.6 62.73 38.6 72.26 38.6 81.78 38.6 91.31 38.6 100.83 38.6 110.35 38.6 119.88 38.6 129.4 38.6 138.92 38.6 148.45 38.6 157.97 38.6 167.5 38.6 177.02 38.6 186.54 38.6 196.07 38.6 205.59 38.6 215.11 38.6 224.64 38.6 234.16 38.6 243.69 38.6 253.21"/><polyline class="cls-23" points="29.07 53.21 29.07 62.73 29.07 72.26 29.07 81.78 29.07 91.31 29.07 100.83 29.07 110.35 29.07 119.88 29.07 129.4 29.07 138.92 29.07 148.45 29.07 157.97 29.07 167.5 29.07 177.02 29.07 186.54 29.07 196.07 29.07 205.59 29.07 215.11 29.07 224.64 29.07 234.16 29.07 243.69 29.07 253.21"/><polyline class="cls-23" points="19.55 53.21 19.55 62.73 19.55 72.26 19.55 81.78 19.55 91.31 19.55 100.83 19.55 110.35 19.55 119.88 19.55 129.4 19.55 138.92 19.55 148.45 19.55 157.97 19.55 167.5 19.55 177.02 19.55 186.54 19.55 196.07 19.55 205.59 19.55 215.11 19.55 224.64 19.55 234.16 19.55 243.69 19.55 253.21"/><polyline class="cls-23" points="10.02 53.21 10.02 62.73 10.02 72.26 10.02 81.78 10.02 91.31 10.02 100.83 10.02 110.35 10.02 119.88 10.02 129.4 10.02 138.92 10.02 148.45 10.02 157.97 10.02 167.5 10.02 177.02 10.02 186.54 10.02 196.07 10.02 205.59 10.02 215.11 10.02 224.64 10.02 234.16 10.02 243.69 10.02 253.21"/><text class="cls-24" transform="translate(17.33 10.04)"><tspan class="cls-25">L</tspan><tspan x="5.5" y="0">o</tspan><tspan class="cls-26" x="12.08" y="0">r</tspan><tspan class="cls-27" x="15.89" y="0">em ipsum</tspan></text></svg>